<svg xmlns="http://www.w3.org/2000/svg" viewBox="0 0 200 200" width="200" height="200">
  <rect x="20" y="170" width="160" height="14" rx="7" fill="#D1D5DB"/>

  <line x1="78" y1="150" x2="30" y2="168" stroke="#E8A872" stroke-width="22" stroke-linecap="round"/>
  <line x1="78" y1="150" x2="59" y2="157" stroke="#7C3AED" stroke-width="22" stroke-linecap="round"/>
  <circle cx="30" cy="168" r="8" fill="#E8A872"/>

  <line x1="78" y1="150" x2="130" y2="140" stroke="#4F46E5" stroke-width="32" stroke-linecap="round"/>

  <line x1="130" y1="140" x2="182" y2="146" stroke="#E8A872" stroke-width="16" stroke-linecap="round"/>
  <line x1="130" y1="140" x2="156" y2="143" stroke="#4F46E5" stroke-width="16" stroke-linecap="round"/>
  <circle cx="182" cy="146" r="9" fill="#E8A872"/>

  <line x1="130" y1="140" x2="140" y2="158" stroke="#E8A872" stroke-width="16" stroke-linecap="round"/>
  <line x1="130" y1="140" x2="135" y2="148" stroke="#4F46E5" stroke-width="16" stroke-linecap="round"/>
  <circle cx="140" cy="158" r="8" fill="#CF8E55"/>
  <line x1="140" y1="158" x2="150" y2="172" stroke="#E8A872" stroke-width="16" stroke-linecap="round"/>
  <circle cx="150" cy="172" r="9" fill="#E8A872"/>

  <line x1="130" y1="140" x2="140" y2="134" stroke="#E8A872" stroke-width="15" stroke-linecap="round"/>
  <circle cx="148" cy="128" r="22" fill="#E8A872"/>
  <circle cx="142" cy="123" r="2.5" fill="#374151"/>
  <circle cx="154" cy="123" r="2.5" fill="#374151"/>
  <path d="M142,134 Q148,138 154,134" stroke="#374151" stroke-width="2.5" fill="none" stroke-linecap="round"/>
</svg>
