<svg xmlns="http://www.w3.org/2000/svg" viewBox="0 0 200 200" width="200" height="200">
  <line x1="20" y1="188" x2="180" y2="188" stroke="#E5E7EB" stroke-width="4" stroke-linecap="round"/>

  <line x1="158" y1="70" x2="158" y2="188" stroke="#C7D2FE" stroke-width="8" stroke-linecap="round"/>

  <line x1="95" y1="152" x2="112" y2="170" stroke="#E8A872" stroke-width="24" stroke-linecap="round"/>
  <line x1="112" y1="170" x2="100" y2="184" stroke="#E8A872" stroke-width="22" stroke-linecap="round"/>
  <circle cx="112" cy="170" r="10" fill="#CF8E55"/>
  <line x1="95" y1="152" x2="105" y2="160" stroke="#7C3AED" stroke-width="24" stroke-linecap="round"/>
  <rect x="88" y="178" width="24" height="12" rx="6" fill="#FFFFFF" stroke="#9CA3AF" stroke-width="2"/>

  <line x1="95" y1="152" x2="55" y2="146" stroke="#E8A872" stroke-width="20" stroke-linecap="round"/>
  <line x1="95" y1="152" x2="75" y2="149" stroke="#7C3AED" stroke-width="20" stroke-linecap="round"/>
  <circle cx="55" cy="146" r="9" fill="#E8A872"/>

  <line x1="95" y1="152" x2="100" y2="108" stroke="#4F46E5" stroke-width="32" stroke-linecap="round"/>

  <line x1="100" y1="108" x2="130" y2="118" stroke="#E8A872" stroke-width="17" stroke-linecap="round"/>
  <line x1="100" y1="108" x2="118" y2="112" stroke="#4F46E5" stroke-width="17" stroke-linecap="round"/>
  <line x1="130" y1="118" x2="155" y2="128" stroke="#E8A872" stroke-width="17" stroke-linecap="round"/>
  <circle cx="155" cy="128" r="9" fill="#E8A872"/>

  <line x1="100" y1="108" x2="76" y2="112" stroke="#E8A872" stroke-width="16" stroke-linecap="round"/>
  <line x1="100" y1="108" x2="88" y2="110" stroke="#4F46E5" stroke-width="16" stroke-linecap="round"/>
  <circle cx="76" cy="112" r="8" fill="#E8A872"/>

  <line x1="100" y1="108" x2="100" y2="99" stroke="#E8A872" stroke-width="16" stroke-linecap="round"/>
  <circle cx="100" cy="82" r="24" fill="#E8A872"/>
  <circle cx="94" cy="77" r="2.5" fill="#374151"/>
  <circle cx="106" cy="77" r="2.5" fill="#374151"/>
  <path d="M94,88 Q100,93 106,88" stroke="#374151" stroke-width="2.5" fill="none" stroke-linecap="round"/>
</svg>
