<svg xmlns="http://www.w3.org/2000/svg" viewBox="0 0 200 200" width="200" height="200">
  <rect x="30" y="176" width="150" height="14" rx="7" fill="#D1D5DB"/>

  <line x1="78" y1="152" x2="45" y2="148" stroke="#E8A872" stroke-width="20" stroke-linecap="round"/>
  <circle cx="45" cy="148" r="8" fill="#E8A872"/>
  <line x1="78" y1="152" x2="66" y2="150" stroke="#7C3AED" stroke-width="20" stroke-linecap="round"/>

  <path d="M78,152 Q105,128 135,140" stroke="#4F46E5" stroke-width="32" fill="none" stroke-linecap="round"/>

  <line x1="135" y1="140" x2="175" y2="145" stroke="#E8A872" stroke-width="16" stroke-linecap="round"/>
  <circle cx="175" cy="145" r="8" fill="#E8A872"/>
  <line x1="135" y1="140" x2="151" y2="142" stroke="#4F46E5" stroke-width="16" stroke-linecap="round"/>

  <line x1="135" y1="140" x2="142" y2="128" stroke="#E8A872" stroke-width="15" stroke-linecap="round"/>
  <circle cx="148" cy="118" r="22" fill="#E8A872"/>
  <circle cx="142" cy="113" r="2.5" fill="#374151"/>
  <circle cx="154" cy="113" r="2.5" fill="#374151"/>
  <path d="M142,124 Q148,128 154,124" stroke="#374151" stroke-width="2.5" fill="none" stroke-linecap="round"/>

  <path d="M50,140 L42,135" stroke="#F59E0B" stroke-width="2.5" stroke-linecap="round" stroke-dasharray="2,3"/>
  <path d="M170,138 L180,133" stroke="#F59E0B" stroke-width="2.5" stroke-linecap="round" stroke-dasharray="2,3"/>
</svg>
