<svg xmlns="http://www.w3.org/2000/svg" viewBox="0 0 200 200" width="200" height="200">
  <line x1="40" y1="188" x2="160" y2="188" stroke="#E5E7EB" stroke-width="4" stroke-linecap="round"/>

  <line x1="100" y1="140" x2="87" y2="184" stroke="#E8A872" stroke-width="22" stroke-linecap="round"/>
  <line x1="100" y1="140" x2="93" y2="158" stroke="#7C3AED" stroke-width="22" stroke-linecap="round"/>
  <rect x="75" y="178" width="22" height="12" rx="6" fill="#FFFFFF" stroke="#9CA3AF" stroke-width="2"/>

  <line x1="100" y1="140" x2="113" y2="184" stroke="#E8A872" stroke-width="22" stroke-linecap="round"/>
  <line x1="100" y1="140" x2="107" y2="158" stroke="#7C3AED" stroke-width="22" stroke-linecap="round"/>
  <rect x="103" y="178" width="22" height="12" rx="6" fill="#FFFFFF" stroke="#9CA3AF" stroke-width="2"/>

  <path d="M100,140 Q114,158 96,174" stroke="#4F46E5" stroke-width="24" fill="none" stroke-linecap="round"/>

  <line x1="105" y1="154" x2="86" y2="185" stroke="#CF8E55" stroke-width="8" stroke-linecap="round"/>
  <circle cx="86" cy="185" r="6" fill="#E8A872"/>
  <line x1="105" y1="154" x2="101" y2="186" stroke="#CF8E55" stroke-width="8" stroke-linecap="round"/>
  <circle cx="101" cy="186" r="6" fill="#E8A872"/>

  <circle cx="92" cy="170" r="13" fill="#E8A872"/>
  <circle cx="88" cy="167" r="2" fill="#374151"/>
  <circle cx="96" cy="167" r="2" fill="#374151"/>
</svg>
