<svg xmlns="http://www.w3.org/2000/svg" viewBox="0 0 200 200" width="200" height="200">
  <line x1="20" y1="188" x2="180" y2="188" stroke="#E5E7EB" stroke-width="4" stroke-linecap="round"/>

  <circle cx="100" cy="40" r="22" fill="#E5E7EB" opacity="0.4"/>
  <line x1="100" y1="95" x2="100" y2="60" stroke="#E5E7EB" stroke-width="34" stroke-linecap="round" opacity="0.4"/>
  <line x1="100" y1="95" x2="85" y2="180" stroke="#E5E7EB" stroke-width="22" stroke-linecap="round" opacity="0.4"/>
  <line x1="100" y1="95" x2="115" y2="180" stroke="#E5E7EB" stroke-width="22" stroke-linecap="round" opacity="0.4"/>

  <line x1="100" y1="130" x2="78" y2="158" stroke="#E8A872" stroke-width="24" stroke-linecap="round"/>
  <line x1="78" y1="158" x2="76" y2="184" stroke="#E8A872" stroke-width="24" stroke-linecap="round"/>
  <circle cx="78" cy="158" r="10" fill="#CF8E55"/>
  <line x1="100" y1="130" x2="86" y2="146" stroke="#7C3AED" stroke-width="24" stroke-linecap="round"/>

  <line x1="100" y1="130" x2="122" y2="158" stroke="#E8A872" stroke-width="24" stroke-linecap="round"/>
  <line x1="122" y1="158" x2="124" y2="184" stroke="#E8A872" stroke-width="24" stroke-linecap="round"/>
  <circle cx="122" cy="158" r="10" fill="#CF8E55"/>
  <line x1="100" y1="130" x2="114" y2="146" stroke="#7C3AED" stroke-width="24" stroke-linecap="round"/>

  <rect x="64" y="178" width="24" height="12" rx="6" fill="#FFFFFF" stroke="#9CA3AF" stroke-width="2"/>
  <rect x="112" y="178" width="24" height="12" rx="6" fill="#FFFFFF" stroke="#9CA3AF" stroke-width="2"/>

  <line x1="100" y1="130" x2="100" y2="85" stroke="#4F46E5" stroke-width="36" stroke-linecap="round"/>

  <line x1="100" y1="85" x2="78" y2="100" stroke="#E8A872" stroke-width="18" stroke-linecap="round"/>
  <line x1="100" y1="85" x2="84" y2="92" stroke="#4F46E5" stroke-width="18" stroke-linecap="round"/>
  <circle cx="78" cy="100" r="8" fill="#CF8E55"/>
  <line x1="78" y1="100" x2="60" y2="108" stroke="#E8A872" stroke-width="18" stroke-linecap="round"/>
  <circle cx="60" cy="108" r="9" fill="#E8A872"/>

  <line x1="100" y1="85" x2="122" y2="100" stroke="#E8A872" stroke-width="18" stroke-linecap="round"/>
  <line x1="100" y1="85" x2="116" y2="92" stroke="#4F46E5" stroke-width="18" stroke-linecap="round"/>
  <circle cx="122" cy="100" r="8" fill="#CF8E55"/>
  <line x1="122" y1="100" x2="140" y2="108" stroke="#E8A872" stroke-width="18" stroke-linecap="round"/>
  <circle cx="140" cy="108" r="9" fill="#E8A872"/>

  <line x1="100" y1="85" x2="100" y2="76" stroke="#E8A872" stroke-width="16" stroke-linecap="round"/>
  <circle cx="100" cy="60" r="24" fill="#E8A872"/>
  <circle cx="94" cy="55" r="2.5" fill="#374151"/>
  <circle cx="106" cy="55" r="2.5" fill="#374151"/>
  <path d="M94,66 Q100,71 106,66" stroke="#374151" stroke-width="2.5" fill="none" stroke-linecap="round"/>

  <line x1="148" y1="68" x2="148" y2="118" stroke="#F59E0B" stroke-width="3" stroke-linecap="round" stroke-dasharray="3,4"/>
  <polygon points="148,62 144,70 152,70" fill="#F59E0B"/>
  <polygon points="148,124 144,116 152,116" fill="#F59E0B"/>
</svg>
