<svg xmlns="http://www.w3.org/2000/svg" viewBox="0 0 100 100" width="100" height="100">
  <rect width="100" height="100" fill="white"/>
  <line x1="10" y1="88" x2="90" y2="88" stroke="#d1d5db" stroke-width="1.5"/>
  <circle cx="50" cy="20" r="7" fill="#f9fafb" stroke="#374151" stroke-width="2.5"/>
  <line x1="50" y1="27" x2="50" y2="54" stroke="#374151" stroke-width="2.5" stroke-linecap="round"/>
  <line x1="36" y1="32" x2="36" y2="44" stroke="#374151" stroke-width="2.5" stroke-linecap="round"/>
  <line x1="50" y1="30" x2="36" y2="32" stroke="#374151" stroke-width="2.5" stroke-linecap="round"/>
  <line x1="64" y1="32" x2="64" y2="44" stroke="#374151" stroke-width="2.5" stroke-linecap="round"/>
  <line x1="50" y1="30" x2="64" y2="32" stroke="#374151" stroke-width="2.5" stroke-linecap="round"/>
  <path d="M 33,44 a 3,3 0 1,0 6,0 a 3,3 0 1,0 -6,0" stroke="#374151" stroke-width="1.5" stroke-linecap="round" stroke-linejoin="round" fill="none"/>
  <path d="M 61,44 a 3,3 0 1,0 6,0 a 3,3 0 1,0 -6,0" stroke="#374151" stroke-width="1.5" stroke-linecap="round" stroke-linejoin="round" fill="none"/>
  <line x1="50" y1="54" x2="32" y2="68" stroke="#374151" stroke-width="2.5" stroke-linecap="round"/>
  <line x1="32" y1="68" x2="30" y2="88" stroke="#374151" stroke-width="2.5" stroke-linecap="round"/>
  <line x1="50" y1="54" x2="68" y2="68" stroke="#374151" stroke-width="2.5" stroke-linecap="round"/>
  <line x1="68" y1="68" x2="70" y2="88" stroke="#374151" stroke-width="2.5" stroke-linecap="round"/>
</svg>