<svg xmlns="http://www.w3.org/2000/svg" viewBox="0 0 200 200" width="200" height="200">
  <line x1="20" y1="188" x2="180" y2="188" stroke="#E5E7EB" stroke-width="4" stroke-linecap="round"/>
  <ellipse cx="48" cy="186" rx="22" ry="6" fill="#E5E7EB" opacity="0.4"/>

  <line x1="115" y1="140" x2="95" y2="158" stroke="#E8A872" stroke-width="28" stroke-linecap="round"/>
  <line x1="95" y1="158" x2="86" y2="176" stroke="#E8A872" stroke-width="26" stroke-linecap="round"/>
  <line x1="115" y1="140" x2="103" y2="150" stroke="#7C3AED" stroke-width="28" stroke-linecap="round"/>

  <line x1="115" y1="140" x2="140" y2="112" stroke="#4F46E5" stroke-width="32" stroke-linecap="round"/>

  <line x1="140" y1="112" x2="160" y2="90" stroke="#E8A872" stroke-width="17" stroke-linecap="round"/>
  <line x1="140" y1="112" x2="152" y2="98" stroke="#4F46E5" stroke-width="17" stroke-linecap="round"/>
  <circle cx="160" cy="90" r="9" fill="#E8A872"/>

  <line x1="140" y1="112" x2="163" y2="105" stroke="#E8A872" stroke-width="15" stroke-linecap="round"/>
  <line x1="140" y1="112" x2="153" y2="109" stroke="#4F46E5" stroke-width="15" stroke-linecap="round"/>
  <circle cx="172" cy="100" r="8" fill="#E8A872"/>

  <line x1="140" y1="112" x2="146" y2="100" stroke="#E8A872" stroke-width="16" stroke-linecap="round"/>
  <circle cx="152" cy="82" r="23" fill="#E8A872"/>
  <circle cx="146" cy="77" r="2.5" fill="#374151"/>
  <circle cx="157" cy="79" r="2.5" fill="#374151"/>
  <path d="M145,86 Q151,90 157,87" stroke="#374151" stroke-width="2.5" fill="none" stroke-linecap="round"/>

  <path d="M55,178 L98,128" stroke="#F59E0B" stroke-width="5" stroke-linecap="round"/>
  <polygon points="103,122 89,127 96,136" fill="#F59E0B"/>
</svg>
