<svg xmlns="http://www.w3.org/2000/svg" viewBox="0 0 200 200" width="200" height="200">
  <line x1="20" y1="188" x2="180" y2="188" stroke="#E5E7EB" stroke-width="4" stroke-linecap="round"/>
  <ellipse cx="40" cy="186" rx="18" ry="6" fill="#E5E7EB" opacity="0.4"/>
  <ellipse cx="168" cy="186" rx="18" ry="6" fill="#E5E7EB" opacity="0.3"/>

  <line x1="110" y1="140" x2="90" y2="158" stroke="#E8A872" stroke-width="26" stroke-linecap="round"/>
  <line x1="90" y1="158" x2="82" y2="176" stroke="#E8A872" stroke-width="24" stroke-linecap="round"/>
  <line x1="110" y1="140" x2="99" y2="150" stroke="#7C3AED" stroke-width="26" stroke-linecap="round"/>

  <line x1="110" y1="140" x2="134" y2="114" stroke="#4F46E5" stroke-width="30" stroke-linecap="round"/>

  <line x1="134" y1="114" x2="152" y2="94" stroke="#E8A872" stroke-width="16" stroke-linecap="round"/>
  <line x1="134" y1="114" x2="145" y2="101" stroke="#4F46E5" stroke-width="16" stroke-linecap="round"/>
  <circle cx="152" cy="94" r="8" fill="#E8A872"/>

  <line x1="134" y1="114" x2="155" y2="108" stroke="#E8A872" stroke-width="14" stroke-linecap="round"/>
  <line x1="134" y1="114" x2="146" y2="111" stroke="#4F46E5" stroke-width="14" stroke-linecap="round"/>
  <circle cx="163" cy="103" r="7" fill="#E8A872"/>

  <line x1="134" y1="114" x2="139" y2="103" stroke="#E8A872" stroke-width="15" stroke-linecap="round"/>
  <circle cx="144" cy="87" r="21" fill="#E8A872"/>
  <circle cx="139" cy="82" r="2.3" fill="#374151"/>
  <circle cx="149" cy="89" r="2.3" fill="#374151"/>
  <path d="M138,91 Q144,95 149,92" stroke="#374151" stroke-width="2.3" fill="none" stroke-linecap="round"/>

  <path d="M48,178 L90,132" stroke="#F59E0B" stroke-width="5" stroke-linecap="round"/>
  <polygon points="94,127 81,131 88,140" fill="#F59E0B"/>

  <path d="M150,108 L172,88" stroke="#F59E0B" stroke-width="3" stroke-linecap="round" stroke-dasharray="3,5" opacity="0.7"/>
  <polygon points="176,84 165,87 171,95" fill="#F59E0B" opacity="0.7"/>
</svg>
