<svg xmlns="http://www.w3.org/2000/svg" viewBox="0 0 200 200" width="200" height="200">
  <line x1="40" y1="188" x2="160" y2="188" stroke="#E5E7EB" stroke-width="4" stroke-linecap="round"/>

  <line x1="100" y1="128" x2="88" y2="182" stroke="#E8A872" stroke-width="24" stroke-linecap="round"/>
  <line x1="100" y1="128" x2="92" y2="146" stroke="#7C3AED" stroke-width="24" stroke-linecap="round"/>
  <path d="M80,184 L96,184 L92,178 L84,178 Z" fill="#FFFFFF" stroke="#9CA3AF" stroke-width="2" stroke-linejoin="round"/>

  <line x1="100" y1="128" x2="112" y2="182" stroke="#E8A872" stroke-width="24" stroke-linecap="round"/>
  <line x1="100" y1="128" x2="108" y2="146" stroke="#7C3AED" stroke-width="24" stroke-linecap="round"/>
  <path d="M104,184 L120,184 L116,178 L108,178 Z" fill="#FFFFFF" stroke="#9CA3AF" stroke-width="2" stroke-linejoin="round"/>

  <line x1="100" y1="128" x2="100" y2="82" stroke="#4F46E5" stroke-width="34" stroke-linecap="round"/>

  <line x1="100" y1="82" x2="88" y2="105" stroke="#E8A872" stroke-width="16" stroke-linecap="round"/>
  <line x1="100" y1="82" x2="93" y2="94" stroke="#4F46E5" stroke-width="16" stroke-linecap="round"/>
  <circle cx="88" cy="105" r="8" fill="#E8A872"/>

  <line x1="100" y1="82" x2="112" y2="105" stroke="#E8A872" stroke-width="16" stroke-linecap="round"/>
  <line x1="100" y1="82" x2="107" y2="94" stroke="#4F46E5" stroke-width="16" stroke-linecap="round"/>
  <circle cx="112" cy="105" r="8" fill="#E8A872"/>

  <line x1="100" y1="82" x2="100" y2="76" stroke="#E8A872" stroke-width="15" stroke-linecap="round"/>
  <circle cx="100" cy="58" r="24" fill="#E8A872"/>
  <circle cx="94" cy="53" r="2.5" fill="#374151"/>
  <circle cx="106" cy="53" r="2.5" fill="#374151"/>
  <path d="M94,64 Q100,69 106,64" stroke="#374151" stroke-width="2.5" fill="none" stroke-linecap="round"/>

  <line x1="145" y1="150" x2="145" y2="118" stroke="#F59E0B" stroke-width="3" stroke-linecap="round" stroke-dasharray="3,4"/>
  <polygon points="145,112 138,124 152,124" fill="#F59E0B"/>
  <polygon points="145,156 138,144 152,144" fill="#F59E0B"/>
</svg>
