<svg xmlns="http://www.w3.org/2000/svg" viewBox="0 0 200 200" width="200" height="200">
  <line x1="40" y1="188" x2="160" y2="188" stroke="#E5E7EB" stroke-width="4" stroke-linecap="round"/>

  <line x1="100" y1="128" x2="88" y2="184" stroke="#E8A872" stroke-width="24" stroke-linecap="round"/>
  <line x1="100" y1="128" x2="92" y2="146" stroke="#7C3AED" stroke-width="24" stroke-linecap="round"/>
  <rect x="76" y="178" width="24" height="12" rx="6" fill="#FFFFFF" stroke="#9CA3AF" stroke-width="2"/>

  <line x1="100" y1="128" x2="112" y2="184" stroke="#E8A872" stroke-width="24" stroke-linecap="round"/>
  <line x1="100" y1="128" x2="108" y2="146" stroke="#7C3AED" stroke-width="24" stroke-linecap="round"/>
  <rect x="100" y="178" width="24" height="12" rx="6" fill="#FFFFFF" stroke="#9CA3AF" stroke-width="2"/>

  <line x1="100" y1="128" x2="100" y2="82" stroke="#4F46E5" stroke-width="34" stroke-linecap="round"/>

  <line x1="100" y1="82" x2="83" y2="93" stroke="#E8A872" stroke-width="16" stroke-linecap="round"/>
  <line x1="100" y1="82" x2="90" y2="88" stroke="#4F46E5" stroke-width="16" stroke-linecap="round"/>
  <circle cx="83" cy="93" r="7" fill="#CF8E55"/>
  <line x1="83" y1="93" x2="98" y2="104" stroke="#E8A872" stroke-width="16" stroke-linecap="round"/>

  <line x1="100" y1="82" x2="117" y2="93" stroke="#E8A872" stroke-width="16" stroke-linecap="round"/>
  <line x1="100" y1="82" x2="110" y2="88" stroke="#4F46E5" stroke-width="16" stroke-linecap="round"/>
  <circle cx="117" cy="93" r="7" fill="#CF8E55"/>
  <line x1="117" y1="93" x2="102" y2="104" stroke="#E8A872" stroke-width="16" stroke-linecap="round"/>

  <circle cx="100" cy="106" r="8" fill="#E8A872"/>

  <line x1="100" y1="82" x2="100" y2="76" stroke="#E8A872" stroke-width="15" stroke-linecap="round"/>
  <circle cx="100" cy="58" r="24" fill="#E8A872"/>
  <circle cx="94" cy="53" r="2.5" fill="#374151"/>
  <circle cx="106" cy="53" r="2.5" fill="#374151"/>
  <path d="M94,64 Q100,69 106,64" stroke="#374151" stroke-width="2.5" fill="none" stroke-linecap="round"/>

</svg>
