<svg xmlns="http://www.w3.org/2000/svg" viewBox="0 0 200 200" width="200" height="200">
  <line x1="20" y1="188" x2="180" y2="188" stroke="#E5E7EB" stroke-width="4" stroke-linecap="round"/>

  <line x1="100" y1="142" x2="133" y2="163" stroke="#E8A872" stroke-width="24" stroke-linecap="round"/>
  <line x1="133" y1="163" x2="126" y2="184" stroke="#E8A872" stroke-width="24" stroke-linecap="round"/>
  <circle cx="133" cy="163" r="10" fill="#CF8E55"/>
  <line x1="100" y1="142" x2="113" y2="150" stroke="#7C3AED" stroke-width="24" stroke-linecap="round"/>
  <rect x="114" y="178" width="24" height="12" rx="6" fill="#FFFFFF" stroke="#9CA3AF" stroke-width="2"/>

  <line x1="100" y1="142" x2="40" y2="176" stroke="#E8A872" stroke-width="22" stroke-linecap="round"/>
  <line x1="100" y1="142" x2="66" y2="155" stroke="#7C3AED" stroke-width="22" stroke-linecap="round"/>
  <rect x="28" y="170" width="24" height="12" rx="6" fill="#FFFFFF" stroke="#9CA3AF" stroke-width="2"/>

  <line x1="100" y1="142" x2="108" y2="97" stroke="#4F46E5" stroke-width="34" stroke-linecap="round"/>

  <line x1="108" y1="97" x2="86" y2="112" stroke="#E8A872" stroke-width="18" stroke-linecap="round"/>
  <line x1="108" y1="97" x2="90" y2="104" stroke="#4F46E5" stroke-width="18" stroke-linecap="round"/>
  <circle cx="86" cy="112" r="8" fill="#CF8E55"/>
  <line x1="86" y1="112" x2="68" y2="120" stroke="#E8A872" stroke-width="18" stroke-linecap="round"/>
  <circle cx="68" cy="120" r="9" fill="#E8A872"/>

  <line x1="108" y1="97" x2="130" y2="112" stroke="#E8A872" stroke-width="18" stroke-linecap="round"/>
  <line x1="108" y1="97" x2="122" y2="104" stroke="#4F46E5" stroke-width="18" stroke-linecap="round"/>
  <circle cx="130" cy="112" r="8" fill="#CF8E55"/>
  <line x1="130" y1="112" x2="148" y2="120" stroke="#E8A872" stroke-width="18" stroke-linecap="round"/>
  <circle cx="148" cy="120" r="9" fill="#E8A872"/>

  <line x1="108" y1="97" x2="108" y2="88" stroke="#E8A872" stroke-width="16" stroke-linecap="round"/>
  <circle cx="108" cy="72" r="24" fill="#E8A872"/>
  <circle cx="102" cy="67" r="2.5" fill="#374151"/>
  <circle cx="114" cy="67" r="2.5" fill="#374151"/>
  <path d="M102,78 Q108,83 114,78" stroke="#374151" stroke-width="2.5" fill="none" stroke-linecap="round"/>
</svg>
