<svg xmlns="http://www.w3.org/2000/svg" viewBox="0 0 200 200" width="200" height="200">
  <line x1="20" y1="188" x2="180" y2="188" stroke="#E5E7EB" stroke-width="4" stroke-linecap="round"/>

  <line x1="100" y1="145" x2="68" y2="168" stroke="#E8A872" stroke-width="24" stroke-linecap="round"/>
  <line x1="68" y1="168" x2="66" y2="186" stroke="#E8A872" stroke-width="24" stroke-linecap="round"/>
  <circle cx="68" cy="168" r="10" fill="#CF8E55"/>
  <line x1="100" y1="145" x2="82" y2="158" stroke="#7C3AED" stroke-width="24" stroke-linecap="round"/>

  <line x1="100" y1="145" x2="132" y2="168" stroke="#E8A872" stroke-width="24" stroke-linecap="round"/>
  <line x1="132" y1="168" x2="134" y2="186" stroke="#E8A872" stroke-width="24" stroke-linecap="round"/>
  <circle cx="132" cy="168" r="10" fill="#CF8E55"/>
  <line x1="100" y1="145" x2="118" y2="158" stroke="#7C3AED" stroke-width="24" stroke-linecap="round"/>

  <rect x="54" y="180" width="24" height="12" rx="6" fill="#FFFFFF" stroke="#9CA3AF" stroke-width="2"/>
  <rect x="122" y="180" width="24" height="12" rx="6" fill="#FFFFFF" stroke="#9CA3AF" stroke-width="2"/>

  <line x1="100" y1="145" x2="100" y2="100" stroke="#4F46E5" stroke-width="36" stroke-linecap="round"/>

  <line x1="100" y1="100" x2="78" y2="115" stroke="#E8A872" stroke-width="18" stroke-linecap="round"/>
  <line x1="100" y1="100" x2="84" y2="107" stroke="#4F46E5" stroke-width="18" stroke-linecap="round"/>
  <circle cx="78" cy="115" r="8" fill="#CF8E55"/>
  <line x1="78" y1="115" x2="70" y2="128" stroke="#E8A872" stroke-width="18" stroke-linecap="round"/>
  <circle cx="70" cy="128" r="9" fill="#E8A872"/>

  <line x1="100" y1="100" x2="122" y2="115" stroke="#E8A872" stroke-width="18" stroke-linecap="round"/>
  <line x1="100" y1="100" x2="116" y2="107" stroke="#4F46E5" stroke-width="18" stroke-linecap="round"/>
  <circle cx="122" cy="115" r="8" fill="#CF8E55"/>
  <line x1="122" y1="115" x2="130" y2="128" stroke="#E8A872" stroke-width="18" stroke-linecap="round"/>
  <circle cx="130" cy="128" r="9" fill="#E8A872"/>

  <line x1="100" y1="100" x2="100" y2="91" stroke="#E8A872" stroke-width="16" stroke-linecap="round"/>
  <circle cx="100" cy="75" r="24" fill="#E8A872"/>
  <circle cx="94" cy="70" r="2.5" fill="#374151"/>
  <circle cx="106" cy="70" r="2.5" fill="#374151"/>
  <path d="M94,81 Q100,86 106,81" stroke="#374151" stroke-width="2.5" fill="none" stroke-linecap="round"/>
</svg>
