<svg xmlns="http://www.w3.org/2000/svg" viewBox="0 0 200 200" width="200" height="200">
  <rect x="20" y="176" width="170" height="14" rx="7" fill="#D1D5DB"/>

  <line x1="105" y1="155" x2="78" y2="168" stroke="#E8A872" stroke-width="22" stroke-linecap="round"/>
  <line x1="78" y1="168" x2="55" y2="184" stroke="#E8A872" stroke-width="22" stroke-linecap="round"/>
  <circle cx="78" cy="168" r="9" fill="#CF8E55"/>
  <line x1="105" y1="155" x2="93" y2="159" stroke="#7C3AED" stroke-width="22" stroke-linecap="round"/>
  <rect x="43" y="178" width="24" height="12" rx="6" fill="#FFFFFF" stroke="#9CA3AF" stroke-width="2"/>

  <line x1="105" y1="155" x2="115" y2="138" stroke="#4F46E5" stroke-width="28" stroke-linecap="round"/>

  <line x1="115" y1="138" x2="138" y2="150" stroke="#E8A872" stroke-width="18" stroke-linecap="round"/>
  <line x1="138" y1="150" x2="145" y2="172" stroke="#E8A872" stroke-width="18" stroke-linecap="round"/>
  <circle cx="138" cy="150" r="8" fill="#CF8E55"/>
  <line x1="115" y1="138" x2="126" y2="142" stroke="#4F46E5" stroke-width="18" stroke-linecap="round"/>
  <circle cx="145" cy="172" r="8" fill="#E8A872"/>

  <line x1="115" y1="138" x2="122" y2="130" stroke="#E8A872" stroke-width="15" stroke-linecap="round"/>
  <circle cx="130" cy="115" r="22" fill="#E8A872"/>
  <circle cx="124" cy="110" r="2.5" fill="#374151"/>
  <circle cx="136" cy="110" r="2.5" fill="#374151"/>
  <path d="M124,121 Q130,125 136,121" stroke="#374151" stroke-width="2.5" fill="none" stroke-linecap="round"/>

  <path d="M150,145 L150,158" stroke="#F59E0B" stroke-width="2.5" stroke-linecap="round" stroke-dasharray="2,3"/>
</svg>
