<svg xmlns="http://www.w3.org/2000/svg" viewBox="0 0 200 200" width="200" height="200">
  <line x1="20" y1="188" x2="180" y2="188" stroke="#E5E7EB" stroke-width="4" stroke-linecap="round"/>

  <line x1="100" y1="150" x2="58" y2="180" stroke="#E8A872" stroke-width="20" stroke-linecap="round"/>
  <line x1="100" y1="150" x2="79" y2="165" stroke="#7C3AED" stroke-width="20" stroke-linecap="round"/>
  <circle cx="58" cy="180" r="8" fill="#E8A872"/>

  <line x1="100" y1="150" x2="162" y2="174" stroke="#E8A872" stroke-width="18" stroke-linecap="round"/>
  <line x1="100" y1="150" x2="131" y2="162" stroke="#7C3AED" stroke-width="18" stroke-linecap="round"/>
  <circle cx="162" cy="174" r="8" fill="#E8A872"/>

  <line x1="100" y1="150" x2="102" y2="103" stroke="#4F46E5" stroke-width="30" stroke-linecap="round"/>

  <line x1="102" y1="103" x2="80" y2="128" stroke="#E8A872" stroke-width="16" stroke-linecap="round"/>
  <line x1="102" y1="103" x2="91" y2="116" stroke="#4F46E5" stroke-width="16" stroke-linecap="round"/>
  <circle cx="80" cy="128" r="8" fill="#CF8E55"/>
  <line x1="80" y1="128" x2="62" y2="168" stroke="#E8A872" stroke-width="16" stroke-linecap="round"/>
  <circle cx="62" cy="168" r="8" fill="#E8A872"/>

  <line x1="102" y1="103" x2="90" y2="125" stroke="#E8A872" stroke-width="14" stroke-linecap="round"/>
  <line x1="90" y1="125" x2="78" y2="160" stroke="#E8A872" stroke-width="14" stroke-linecap="round"/>
  <circle cx="78" cy="160" r="7" fill="#E8A872"/>

  <line x1="102" y1="103" x2="105" y2="95" stroke="#E8A872" stroke-width="15" stroke-linecap="round"/>
  <circle cx="108" cy="80" r="22" fill="#E8A872"/>
  <circle cx="102" cy="75" r="2.5" fill="#374151"/>
  <circle cx="114" cy="75" r="2.5" fill="#374151"/>
  <path d="M102,86 Q108,90 114,86" stroke="#374151" stroke-width="2.5" fill="none" stroke-linecap="round"/>
</svg>
