<svg xmlns="http://www.w3.org/2000/svg" viewBox="0 0 200 200" width="200" height="200">
  <rect x="20" y="176" width="170" height="14" rx="7" fill="#D1D5DB"/>

  <line x1="100" y1="150" x2="82" y2="168" stroke="#E8A872" stroke-width="22" stroke-linecap="round"/>
  <line x1="82" y1="168" x2="62" y2="180" stroke="#E8A872" stroke-width="22" stroke-linecap="round"/>
  <circle cx="82" cy="168" r="9" fill="#CF8E55"/>
  <line x1="100" y1="150" x2="90" y2="160" stroke="#7C3AED" stroke-width="22" stroke-linecap="round"/>
  <rect x="50" y="174" width="22" height="11" rx="5" fill="#FFFFFF" stroke="#9CA3AF" stroke-width="2"/>

  <line x1="100" y1="150" x2="130" y2="126" stroke="#4F46E5" stroke-width="28" stroke-linecap="round"/>

  <line x1="130" y1="126" x2="150" y2="165" stroke="#E8A872" stroke-width="18" stroke-linecap="round"/>
  <line x1="130" y1="126" x2="141" y2="147" stroke="#4F46E5" stroke-width="18" stroke-linecap="round"/>
  <circle cx="150" cy="165" r="8" fill="#E8A872"/>

  <line x1="130" y1="126" x2="136" y2="119" stroke="#E8A872" stroke-width="14" stroke-linecap="round"/>
  <circle cx="143" cy="111" r="20" fill="#E8A872"/>
  <circle cx="137" cy="106" r="2.5" fill="#374151"/>
  <circle cx="149" cy="106" r="2.5" fill="#374151"/>
  <path d="M137,117 Q143,121 149,117" stroke="#374151" stroke-width="2.5" fill="none" stroke-linecap="round"/>

  <circle cx="100" cy="95" r="9" fill="#E5E7EB" opacity="0.4"/>
  <path d="M100,140 L100,108" stroke="#F59E0B" stroke-width="5" stroke-linecap="round"/>
  <polygon points="100,101 92,114 108,114" fill="#F59E0B"/>
</svg>
