<svg xmlns="http://www.w3.org/2000/svg" viewBox="0 0 200 200" width="200" height="200">
  <rect x="30" y="176" width="160" height="14" rx="7" fill="#D1D5DB"/>

  <line x1="62" y1="172" x2="110" y2="168" stroke="#E5E7EB" stroke-width="30" stroke-linecap="round" opacity="0.3"/>
  <line x1="110" y1="168" x2="145" y2="165" stroke="#E5E7EB" stroke-width="22" stroke-linecap="round" opacity="0.3"/>

  <line x1="62" y1="172" x2="110" y2="148" stroke="#4F46E5" stroke-width="32" stroke-linecap="round"/>

  <line x1="110" y1="148" x2="145" y2="165" stroke="#E8A872" stroke-width="24" stroke-linecap="round"/>
  <line x1="145" y1="165" x2="165" y2="178" stroke="#E8A872" stroke-width="24" stroke-linecap="round"/>
  <circle cx="145" cy="165" r="10" fill="#CF8E55"/>
  <line x1="110" y1="148" x2="131" y2="159" stroke="#7C3AED" stroke-width="24" stroke-linecap="round"/>
  <rect x="153" y="172" width="24" height="12" rx="6" fill="#FFFFFF" stroke="#9CA3AF" stroke-width="2"/>

  <line x1="62" y1="172" x2="40" y2="176" stroke="#E8A872" stroke-width="16" stroke-linecap="round"/>
  <line x1="62" y1="172" x2="50" y2="174" stroke="#4F46E5" stroke-width="16" stroke-linecap="round"/>
  <circle cx="40" cy="176" r="8" fill="#E8A872"/>

  <line x1="62" y1="172" x2="52" y2="170" stroke="#E8A872" stroke-width="15" stroke-linecap="round"/>
  <circle cx="45" cy="168" r="22" fill="#E8A872"/>
  <circle cx="39" cy="163" r="2.5" fill="#374151"/>
  <circle cx="51" cy="163" r="2.5" fill="#374151"/>
  <path d="M39,174 Q45,178 51,174" stroke="#374151" stroke-width="2.5" fill="none" stroke-linecap="round"/>

  <line x1="110" y1="138" x2="110" y2="118" stroke="#F59E0B" stroke-width="3" stroke-linecap="round" stroke-dasharray="3,4"/>
  <polygon points="110,112 104,122 116,122" fill="#F59E0B"/>
</svg>
