<svg xmlns="http://www.w3.org/2000/svg" viewBox="0 0 200 200" width="200" height="200">
  <line x1="40" y1="188" x2="160" y2="188" stroke="#E5E7EB" stroke-width="4" stroke-linecap="round"/>

  <line x1="100" y1="135" x2="65" y2="184" stroke="#E8A872" stroke-width="24" stroke-linecap="round"/>
  <line x1="100" y1="135" x2="135" y2="184" stroke="#E8A872" stroke-width="24" stroke-linecap="round"/>
  <line x1="100" y1="135" x2="88" y2="152" stroke="#7C3AED" stroke-width="24" stroke-linecap="round"/>
  <line x1="100" y1="135" x2="112" y2="152" stroke="#7C3AED" stroke-width="24" stroke-linecap="round"/>
  <rect x="53" y="178" width="24" height="12" rx="6" fill="#FFFFFF" stroke="#9CA3AF" stroke-width="2"/>
  <rect x="123" y="178" width="24" height="12" rx="6" fill="#FFFFFF" stroke="#9CA3AF" stroke-width="2"/>

  <line x1="100" y1="135" x2="100" y2="88" stroke="#4F46E5" stroke-width="34" stroke-linecap="round"/>

  <line x1="100" y1="88" x2="75" y2="50" stroke="#E8A872" stroke-width="18" stroke-linecap="round"/>
  <line x1="100" y1="88" x2="90" y2="73" stroke="#4F46E5" stroke-width="18" stroke-linecap="round"/>
  <circle cx="75" cy="50" r="9" fill="#E8A872"/>

  <line x1="100" y1="88" x2="125" y2="50" stroke="#E8A872" stroke-width="18" stroke-linecap="round"/>
  <line x1="100" y1="88" x2="110" y2="73" stroke="#4F46E5" stroke-width="18" stroke-linecap="round"/>
  <circle cx="125" cy="50" r="9" fill="#E8A872"/>

  <circle cx="100" cy="60" r="23" fill="#E8A872"/>
  <circle cx="94" cy="55" r="2.5" fill="#374151"/>
  <circle cx="106" cy="55" r="2.5" fill="#374151"/>
  <path d="M94,67 Q100,72 106,67" stroke="#374151" stroke-width="2.5" fill="none" stroke-linecap="round"/>

  <line x1="100" y1="30" x2="100" y2="20" stroke="#F59E0B" stroke-width="3" stroke-linecap="round" stroke-dasharray="2,3"/>
  <path d="M50,170 L42,178" stroke="#F59E0B" stroke-width="2.5" stroke-linecap="round" stroke-dasharray="2,3"/>
  <path d="M150,170 L158,178" stroke="#F59E0B" stroke-width="2.5" stroke-linecap="round" stroke-dasharray="2,3"/>
</svg>
