<svg xmlns="http://www.w3.org/2000/svg" viewBox="0 0 200 200" width="200" height="200">
  <line x1="40" y1="188" x2="160" y2="188" stroke="#E5E7EB" stroke-width="4" stroke-linecap="round"/>

  <line x1="100" y1="135" x2="88" y2="183" stroke="#E8A872" stroke-width="24" stroke-linecap="round"/>
  <line x1="100" y1="135" x2="93" y2="150" stroke="#7C3AED" stroke-width="24" stroke-linecap="round"/>
  <rect x="76" y="177" width="24" height="12" rx="6" fill="#FFFFFF" stroke="#9CA3AF" stroke-width="2"/>

  <line x1="100" y1="135" x2="116" y2="158" stroke="#E8A872" stroke-width="22" stroke-linecap="round"/>
  <line x1="116" y1="158" x2="108" y2="178" stroke="#E8A872" stroke-width="22" stroke-linecap="round"/>
  <circle cx="116" cy="158" r="9" fill="#CF8E55"/>
  <line x1="100" y1="135" x2="108" y2="146" stroke="#7C3AED" stroke-width="22" stroke-linecap="round"/>

  <line x1="100" y1="135" x2="100" y2="88" stroke="#4F46E5" stroke-width="34" stroke-linecap="round"/>

  <line x1="100" y1="88" x2="78" y2="65" stroke="#E8A872" stroke-width="18" stroke-linecap="round"/>
  <line x1="100" y1="88" x2="91" y2="78" stroke="#4F46E5" stroke-width="18" stroke-linecap="round"/>
  <circle cx="78" cy="65" r="9" fill="#E8A872"/>

  <line x1="100" y1="88" x2="118" y2="100" stroke="#E8A872" stroke-width="18" stroke-linecap="round"/>
  <line x1="100" y1="88" x2="108" y2="95" stroke="#4F46E5" stroke-width="18" stroke-linecap="round"/>
  <circle cx="118" cy="100" r="9" fill="#E8A872"/>

  <circle cx="100" cy="60" r="23" fill="#E8A872"/>
  <circle cx="94" cy="55" r="2.5" fill="#374151"/>
  <circle cx="106" cy="55" r="2.5" fill="#374151"/>
  <path d="M94,67 Q100,72 106,67" stroke="#374151" stroke-width="2.5" fill="none" stroke-linecap="round"/>

  <path d="M108,172 L108,162" stroke="#F59E0B" stroke-width="2.5" stroke-linecap="round" stroke-dasharray="2,3"/>
</svg>
