<svg xmlns="http://www.w3.org/2000/svg" viewBox="0 0 200 200" width="200" height="200">
  <line x1="40" y1="188" x2="160" y2="188" stroke="#E5E7EB" stroke-width="4" stroke-linecap="round"/>

  <line x1="100" y1="128" x2="100" y2="184" stroke="#E8A872" stroke-width="24" stroke-linecap="round"/>
  <line x1="100" y1="128" x2="100" y2="150" stroke="#7C3AED" stroke-width="24" stroke-linecap="round"/>
  <rect x="88" y="178" width="24" height="12" rx="6" fill="#FFFFFF" stroke="#9CA3AF" stroke-width="2"/>

  <line x1="100" y1="128" x2="120" y2="118" stroke="#E8A872" stroke-width="22" stroke-linecap="round"/>
  <line x1="120" y1="118" x2="104" y2="138" stroke="#E8A872" stroke-width="22" stroke-linecap="round"/>
  <circle cx="120" cy="118" r="9" fill="#CF8E55"/>
  <line x1="100" y1="128" x2="112" y2="122" stroke="#7C3AED" stroke-width="22" stroke-linecap="round"/>
  <circle cx="104" cy="138" r="8" fill="#E8A872"/>

  <line x1="100" y1="128" x2="100" y2="82" stroke="#4F46E5" stroke-width="34" stroke-linecap="round"/>

  <line x1="100" y1="82" x2="78" y2="62" stroke="#E8A872" stroke-width="18" stroke-linecap="round"/>
  <line x1="100" y1="82" x2="91" y2="74" stroke="#4F46E5" stroke-width="18" stroke-linecap="round"/>
  <circle cx="78" cy="62" r="8" fill="#CF8E55"/>
  <line x1="78" y1="62" x2="64" y2="50" stroke="#E8A872" stroke-width="18" stroke-linecap="round"/>
  <circle cx="64" cy="50" r="9" fill="#E8A872"/>

  <line x1="100" y1="82" x2="118" y2="95" stroke="#E8A872" stroke-width="18" stroke-linecap="round"/>
  <line x1="100" y1="82" x2="107" y2="87" stroke="#4F46E5" stroke-width="18" stroke-linecap="round"/>
  <circle cx="118" cy="95" r="8" fill="#CF8E55"/>
  <line x1="118" y1="95" x2="112" y2="112" stroke="#E8A872" stroke-width="18" stroke-linecap="round"/>
  <circle cx="112" cy="112" r="9" fill="#E8A872"/>

  <line x1="100" y1="82" x2="100" y2="76" stroke="#E8A872" stroke-width="15" stroke-linecap="round"/>
  <circle cx="100" cy="58" r="24" fill="#E8A872"/>
  <circle cx="94" cy="53" r="2.5" fill="#374151"/>
  <circle cx="106" cy="53" r="2.5" fill="#374151"/>
  <path d="M94,64 Q100,69 106,64" stroke="#374151" stroke-width="2.5" fill="none" stroke-linecap="round"/>

  <path d="M120,104 L120,90" stroke="#F59E0B" stroke-width="2.5" stroke-linecap="round" stroke-dasharray="2,3"/>
  <polygon points="120,84 115,92 125,92" fill="#F59E0B"/>
</svg>
