<svg xmlns="http://www.w3.org/2000/svg" viewBox="0 0 200 200" width="200" height="200">
  <line x1="20" y1="188" x2="180" y2="188" stroke="#E5E7EB" stroke-width="4" stroke-linecap="round"/>

  <line x1="100" y1="158" x2="65" y2="172" stroke="#E8A872" stroke-width="22" stroke-linecap="round"/>
  <line x1="65" y1="172" x2="35" y2="182" stroke="#E8A872" stroke-width="20" stroke-linecap="round"/>
  <line x1="100" y1="158" x2="82" y2="167" stroke="#7C3AED" stroke-width="22" stroke-linecap="round"/>
  <rect x="24" y="177" width="22" height="11" rx="5" fill="#FFFFFF" stroke="#9CA3AF" stroke-width="2"/>

  <line x1="100" y1="158" x2="135" y2="172" stroke="#E8A872" stroke-width="22" stroke-linecap="round"/>
  <line x1="135" y1="172" x2="165" y2="182" stroke="#E8A872" stroke-width="20" stroke-linecap="round"/>
  <line x1="100" y1="158" x2="118" y2="167" stroke="#7C3AED" stroke-width="22" stroke-linecap="round"/>
  <rect x="154" y="177" width="22" height="11" rx="5" fill="#FFFFFF" stroke="#9CA3AF" stroke-width="2"/>

  <path d="M100,158 Q100,174 100,180" stroke="#4F46E5" stroke-width="22" fill="none" stroke-linecap="round"/>

  <line x1="100" y1="177" x2="82" y2="186" stroke="#E8A872" stroke-width="9" stroke-linecap="round"/>
  <circle cx="82" cy="186" r="6" fill="#E8A872"/>
  <line x1="100" y1="177" x2="118" y2="186" stroke="#E8A872" stroke-width="9" stroke-linecap="round"/>
  <circle cx="118" cy="186" r="6" fill="#E8A872"/>

  <circle cx="100" cy="181" r="14" fill="#E8A872"/>
  <circle cx="95" cy="178" r="2" fill="#374151"/>
  <circle cx="105" cy="178" r="2" fill="#374151"/>
</svg>
