<svg xmlns="http://www.w3.org/2000/svg" viewBox="0 0 200 200" width="200" height="200">
  <line x1="20" y1="188" x2="180" y2="188" stroke="#E5E7EB" stroke-width="4" stroke-linecap="round"/>

  <line x1="100" y1="165" x2="178" y2="182" stroke="#E8A872" stroke-width="20" stroke-linecap="round"/>
  <line x1="100" y1="165" x2="130" y2="171" stroke="#7C3AED" stroke-width="20" stroke-linecap="round"/>
  <circle cx="178" cy="182" r="8" fill="#E8A872"/>

  <line x1="100" y1="165" x2="68" y2="160" stroke="#E8A872" stroke-width="22" stroke-linecap="round"/>
  <line x1="68" y1="160" x2="46" y2="172" stroke="#E8A872" stroke-width="22" stroke-linecap="round"/>
  <circle cx="68" cy="160" r="10" fill="#CF8E55"/>
  <line x1="100" y1="165" x2="84" y2="163" stroke="#7C3AED" stroke-width="22" stroke-linecap="round"/>
  <circle cx="46" cy="172" r="8" fill="#E8A872"/>

  <line x1="100" y1="165" x2="92" y2="120" stroke="#4F46E5" stroke-width="28" stroke-linecap="round"/>

  <line x1="92" y1="120" x2="75" y2="132" stroke="#E8A872" stroke-width="16" stroke-linecap="round"/>
  <line x1="92" y1="120" x2="85" y2="127" stroke="#4F46E5" stroke-width="16" stroke-linecap="round"/>
  <circle cx="75" cy="132" r="7" fill="#CF8E55"/>
  <line x1="75" y1="132" x2="60" y2="145" stroke="#E8A872" stroke-width="16" stroke-linecap="round"/>
  <circle cx="60" cy="145" r="8" fill="#E8A872"/>

  <line x1="92" y1="120" x2="100" y2="132" stroke="#E8A872" stroke-width="14" stroke-linecap="round"/>
  <line x1="92" y1="120" x2="96" y2="126" stroke="#4F46E5" stroke-width="14" stroke-linecap="round"/>
  <circle cx="105" cy="142" r="8" fill="#E8A872"/>
  <line x1="100" y1="132" x2="105" y2="142" stroke="#E8A872" stroke-width="14" stroke-linecap="round"/>

  <line x1="92" y1="120" x2="92" y2="112" stroke="#E8A872" stroke-width="15" stroke-linecap="round"/>
  <circle cx="90" cy="97" r="22" fill="#E8A872"/>
  <circle cx="84" cy="92" r="2.5" fill="#374151"/>
  <circle cx="96" cy="93" r="2.5" fill="#374151"/>
  <path d="M84,103 Q90,107 96,103" stroke="#374151" stroke-width="2.5" fill="none" stroke-linecap="round"/>
</svg>
