<svg xmlns="http://www.w3.org/2000/svg" viewBox="0 0 200 200" width="200" height="200">
  <rect x="20" y="176" width="170" height="14" rx="7" fill="#D1D5DB"/>

  <line x1="100" y1="110" x2="30" y2="172" stroke="#E8A872" stroke-width="24" stroke-linecap="round"/>
  <circle cx="30" cy="172" r="9" fill="#E8A872"/>
  <line x1="100" y1="110" x2="72" y2="135" stroke="#7C3AED" stroke-width="24" stroke-linecap="round"/>

  <line x1="100" y1="110" x2="150" y2="150" stroke="#4F46E5" stroke-width="30" stroke-linecap="round"/>

  <line x1="150" y1="150" x2="165" y2="176" stroke="#E8A872" stroke-width="18" stroke-linecap="round"/>
  <circle cx="165" cy="176" r="8" fill="#E8A872"/>
  <line x1="150" y1="150" x2="156" y2="160" stroke="#4F46E5" stroke-width="18" stroke-linecap="round"/>

  <line x1="150" y1="150" x2="160" y2="144" stroke="#E8A872" stroke-width="14" stroke-linecap="round"/>
  <circle cx="167" cy="140" r="22" fill="#E8A872"/>
  <circle cx="161" cy="135" r="2.5" fill="#374151"/>
  <circle cx="173" cy="135" r="2.5" fill="#374151"/>
  <path d="M161,146 Q167,150 173,146" stroke="#374151" stroke-width="2.5" fill="none" stroke-linecap="round"/>

  <line x1="133" y1="152" x2="133" y2="174" stroke="#F59E0B" stroke-width="4" stroke-linecap="round"/>
  <polygon points="133,146 128,155 138,155" fill="#F59E0B"/>
  <polygon points="133,180 128,171 138,171" fill="#F59E0B"/>
</svg>
