<svg xmlns="http://www.w3.org/2000/svg" viewBox="0 0 200 200" width="200" height="200">
  <line x1="20" y1="188" x2="180" y2="188" stroke="#E5E7EB" stroke-width="4" stroke-linecap="round"/>
  <ellipse cx="100" cy="186" rx="26" ry="6" fill="#E5E7EB" opacity="0.4"/>

  <line x1="100" y1="120" x2="75" y2="138" stroke="#E8A872" stroke-width="24" stroke-linecap="round"/>
  <line x1="75" y1="138" x2="72" y2="164" stroke="#E8A872" stroke-width="24" stroke-linecap="round"/>
  <circle cx="75" cy="138" r="10" fill="#CF8E55"/>
  <line x1="100" y1="120" x2="85" y2="131" stroke="#7C3AED" stroke-width="24" stroke-linecap="round"/>
  <circle cx="72" cy="164" r="10" fill="#E8A872"/>

  <line x1="100" y1="120" x2="128" y2="148" stroke="#E8A872" stroke-width="24" stroke-linecap="round"/>
  <line x1="128" y1="148" x2="118" y2="164" stroke="#E8A872" stroke-width="24" stroke-linecap="round"/>
  <circle cx="128" cy="148" r="10" fill="#CF8E55"/>
  <line x1="100" y1="120" x2="117" y2="137" stroke="#7C3AED" stroke-width="24" stroke-linecap="round"/>
  <circle cx="118" cy="164" r="9" fill="#E8A872"/>

  <line x1="100" y1="120" x2="100" y2="75" stroke="#4F46E5" stroke-width="34" stroke-linecap="round"/>

  <line x1="100" y1="75" x2="78" y2="88" stroke="#E8A872" stroke-width="18" stroke-linecap="round"/>
  <line x1="100" y1="75" x2="88" y2="80" stroke="#4F46E5" stroke-width="18" stroke-linecap="round"/>
  <circle cx="78" cy="88" r="8" fill="#E8A872"/>

  <line x1="100" y1="75" x2="122" y2="62" stroke="#E8A872" stroke-width="18" stroke-linecap="round"/>
  <line x1="100" y1="75" x2="112" y2="68" stroke="#4F46E5" stroke-width="18" stroke-linecap="round"/>
  <circle cx="122" cy="62" r="8" fill="#E8A872"/>

  <line x1="100" y1="75" x2="100" y2="66" stroke="#E8A872" stroke-width="15" stroke-linecap="round"/>
  <circle cx="100" cy="52" r="24" fill="#E8A872"/>
  <circle cx="94" cy="47" r="2.5" fill="#374151"/>
  <circle cx="106" cy="47" r="2.5" fill="#374151"/>
  <path d="M94,58 Q100,63 106,58" stroke="#374151" stroke-width="2.5" fill="none" stroke-linecap="round"/>

  <path d="M100,181 L100,168" stroke="#F59E0B" stroke-width="5" stroke-linecap="round"/>
  <polygon points="100,162 92,175 108,175" fill="#F59E0B"/>
</svg>
