<svg xmlns="http://www.w3.org/2000/svg" viewBox="0 0 200 200" width="200" height="200">
  <line x1="40" y1="188" x2="160" y2="188" stroke="#E5E7EB" stroke-width="4" stroke-linecap="round"/>

  <line x1="100" y1="140" x2="75" y2="158" stroke="#E8A872" stroke-width="24" stroke-linecap="round"/>
  <line x1="75" y1="158" x2="72" y2="184" stroke="#E8A872" stroke-width="24" stroke-linecap="round"/>
  <circle cx="75" cy="158" r="10" fill="#CF8E55"/>
  <line x1="100" y1="140" x2="85" y2="151" stroke="#7C3AED" stroke-width="24" stroke-linecap="round"/>
  <rect x="60" y="178" width="24" height="12" rx="6" fill="#FFFFFF" stroke="#9CA3AF" stroke-width="2"/>

  <line x1="100" y1="140" x2="128" y2="168" stroke="#E8A872" stroke-width="24" stroke-linecap="round"/>
  <line x1="128" y1="168" x2="118" y2="184" stroke="#E8A872" stroke-width="24" stroke-linecap="round"/>
  <circle cx="128" cy="168" r="10" fill="#CF8E55"/>
  <line x1="100" y1="140" x2="117" y2="157" stroke="#7C3AED" stroke-width="24" stroke-linecap="round"/>
  <rect x="108" y="178" width="22" height="11" rx="5" fill="#FFFFFF" stroke="#9CA3AF" stroke-width="2"/>

  <line x1="100" y1="140" x2="100" y2="95" stroke="#4F46E5" stroke-width="34" stroke-linecap="round"/>

  <line x1="100" y1="95" x2="78" y2="108" stroke="#E8A872" stroke-width="18" stroke-linecap="round"/>
  <line x1="100" y1="95" x2="88" y2="100" stroke="#4F46E5" stroke-width="18" stroke-linecap="round"/>
  <circle cx="78" cy="108" r="8" fill="#E8A872"/>

  <line x1="100" y1="95" x2="122" y2="82" stroke="#E8A872" stroke-width="18" stroke-linecap="round"/>
  <line x1="100" y1="95" x2="112" y2="88" stroke="#4F46E5" stroke-width="18" stroke-linecap="round"/>
  <circle cx="122" cy="82" r="8" fill="#E8A872"/>

  <line x1="100" y1="95" x2="100" y2="86" stroke="#E8A872" stroke-width="15" stroke-linecap="round"/>
  <circle cx="100" cy="72" r="24" fill="#E8A872"/>
  <circle cx="94" cy="67" r="2.5" fill="#374151"/>
  <circle cx="106" cy="67" r="2.5" fill="#374151"/>
  <path d="M94,78 Q100,83 106,78" stroke="#374151" stroke-width="2.5" fill="none" stroke-linecap="round"/>

  <path d="M50,160 L62,160" stroke="#F59E0B" stroke-width="2.5" stroke-linecap="round" stroke-dasharray="2,3"/>
  <polygon points="50,160 56,156 56,164" fill="#F59E0B"/>
</svg>
