<svg xmlns="http://www.w3.org/2000/svg" viewBox="0 0 200 200" width="200" height="200">
  <rect x="20" y="176" width="170" height="14" rx="7" fill="#D1D5DB"/>

  <line x1="100" y1="156" x2="88" y2="168" stroke="#E8A872" stroke-width="24" stroke-linecap="round"/>
  <line x1="88" y1="168" x2="80" y2="172" stroke="#E8A872" stroke-width="24" stroke-linecap="round"/>
  <circle cx="88" cy="168" r="10" fill="#CF8E55"/>
  <line x1="100" y1="156" x2="93" y2="164" stroke="#7C3AED" stroke-width="24" stroke-linecap="round"/>
  <circle cx="80" cy="172" r="9" fill="#E8A872"/>

  <line x1="100" y1="156" x2="112" y2="168" stroke="#E8A872" stroke-width="24" stroke-linecap="round"/>
  <line x1="112" y1="168" x2="120" y2="172" stroke="#E8A872" stroke-width="24" stroke-linecap="round"/>
  <circle cx="112" cy="168" r="10" fill="#CF8E55"/>
  <line x1="100" y1="156" x2="107" y2="164" stroke="#7C3AED" stroke-width="24" stroke-linecap="round"/>
  <circle cx="120" cy="172" r="9" fill="#E8A872"/>

  <line x1="100" y1="156" x2="100" y2="105" stroke="#4F46E5" stroke-width="34" stroke-linecap="round"/>

  <line x1="100" y1="105" x2="85" y2="128" stroke="#E8A872" stroke-width="18" stroke-linecap="round"/>
  <line x1="100" y1="105" x2="90" y2="118" stroke="#4F46E5" stroke-width="18" stroke-linecap="round"/>
  <circle cx="85" cy="128" r="8" fill="#CF8E55"/>
  <line x1="85" y1="128" x2="76" y2="154" stroke="#E8A872" stroke-width="18" stroke-linecap="round"/>
  <circle cx="76" cy="154" r="9" fill="#E8A872"/>

  <line x1="100" y1="105" x2="120" y2="98" stroke="#E8A872" stroke-width="18" stroke-linecap="round"/>
  <line x1="100" y1="105" x2="112" y2="101" stroke="#4F46E5" stroke-width="18" stroke-linecap="round"/>
  <circle cx="120" cy="98" r="8" fill="#CF8E55"/>
  <line x1="120" y1="98" x2="138" y2="90" stroke="#E8A872" stroke-width="18" stroke-linecap="round"/>
  <circle cx="138" cy="90" r="8" fill="#E8A872"/>

  <line x1="100" y1="105" x2="100" y2="96" stroke="#E8A872" stroke-width="16" stroke-linecap="round"/>
  <circle cx="100" cy="80" r="24" fill="#E8A872"/>
  <circle cx="94" cy="75" r="2.5" fill="#374151"/>
  <circle cx="106" cy="75" r="2.5" fill="#374151"/>
  <path d="M94,86 Q100,91 106,86" stroke="#374151" stroke-width="2.5" fill="none" stroke-linecap="round"/>

  <path d="M130,80 Q148,72 158,86" stroke="#F59E0B" stroke-width="5" fill="none" stroke-linecap="round"/>
  <polygon points="158,86 147,83 151,93" fill="#F59E0B"/>
</svg>
