<svg xmlns="http://www.w3.org/2000/svg" viewBox="0 0 200 200" width="200" height="200">
  <rect x="20" y="176" width="170" height="14" rx="7" fill="#D1D5DB"/>

  <line x1="95" y1="158" x2="40" y2="172" stroke="#E8A872" stroke-width="24" stroke-linecap="round"/>
  <line x1="95" y1="158" x2="73" y2="163" stroke="#7C3AED" stroke-width="24" stroke-linecap="round"/>
  <circle cx="40" cy="172" r="7" fill="#E8A872"/>

  <line x1="148" y1="150" x2="95" y2="158" stroke="#4F46E5" stroke-width="30" stroke-linecap="round"/>

  <line x1="148" y1="150" x2="155" y2="162" stroke="#E8A872" stroke-width="16" stroke-linecap="round"/>
  <line x1="148" y1="150" x2="153" y2="159" stroke="#4F46E5" stroke-width="16" stroke-linecap="round"/>
  <circle cx="155" cy="162" r="8" fill="#CF8E55"/>
  <line x1="155" y1="162" x2="165" y2="174" stroke="#E8A872" stroke-width="16" stroke-linecap="round"/>
  <circle cx="165" cy="174" r="8" fill="#E8A872"/>

  <line x1="148" y1="150" x2="132" y2="136" stroke="#E8A872" stroke-width="16" stroke-linecap="round"/>
  <line x1="148" y1="150" x2="141" y2="144" stroke="#4F46E5" stroke-width="16" stroke-linecap="round"/>
  <circle cx="132" cy="136" r="8" fill="#CF8E55"/>
  <line x1="132" y1="136" x2="118" y2="148" stroke="#E8A872" stroke-width="16" stroke-linecap="round"/>
  <circle cx="118" cy="148" r="8" fill="#E8A872"/>

  <line x1="148" y1="150" x2="158" y2="144" stroke="#E8A872" stroke-width="14" stroke-linecap="round"/>
  <circle cx="165" cy="140" r="22" fill="#E8A872"/>
  <circle cx="159" cy="135" r="2.5" fill="#374151"/>
  <circle cx="171" cy="135" r="2.5" fill="#374151"/>
  <path d="M159,146 Q165,150 171,146" stroke="#374151" stroke-width="2.5" fill="none" stroke-linecap="round"/>

  <path d="M112,152 Q106,156 112,160" stroke="#F59E0B" stroke-width="2.5" fill="none" stroke-linecap="round" stroke-dasharray="2,3"/>
</svg>
