<svg xmlns="http://www.w3.org/2000/svg" viewBox="0 0 200 200" width="200" height="200">
  <line x1="40" y1="188" x2="160" y2="188" stroke="#E5E7EB" stroke-width="4" stroke-linecap="round"/>

  <line x1="100" y1="128" x2="88" y2="184" stroke="#E8A872" stroke-width="24" stroke-linecap="round"/>
  <line x1="100" y1="128" x2="92" y2="146" stroke="#7C3AED" stroke-width="24" stroke-linecap="round"/>
  <rect x="76" y="178" width="24" height="12" rx="6" fill="#FFFFFF" stroke="#9CA3AF" stroke-width="2"/>

  <line x1="100" y1="128" x2="112" y2="184" stroke="#E8A872" stroke-width="24" stroke-linecap="round"/>
  <line x1="100" y1="128" x2="108" y2="146" stroke="#7C3AED" stroke-width="24" stroke-linecap="round"/>
  <rect x="100" y="178" width="24" height="12" rx="6" fill="#FFFFFF" stroke="#9CA3AF" stroke-width="2"/>

  <line x1="100" y1="128" x2="100" y2="82" stroke="#4F46E5" stroke-width="34" stroke-linecap="round"/>

  <line x1="100" y1="82" x2="90" y2="102" stroke="#E8A872" stroke-width="18" stroke-linecap="round"/>
  <line x1="100" y1="82" x2="95" y2="92" stroke="#4F46E5" stroke-width="18" stroke-linecap="round"/>
  <circle cx="90" cy="102" r="9" fill="#E8A872"/>

  <line x1="100" y1="82" x2="145" y2="82" stroke="#E8A872" stroke-width="18" stroke-linecap="round"/>
  <line x1="100" y1="82" x2="122" y2="82" stroke="#4F46E5" stroke-width="18" stroke-linecap="round"/>
  <circle cx="145" cy="82" r="9" fill="#E8A872"/>

  <line x1="100" y1="82" x2="100" y2="76" stroke="#E8A872" stroke-width="15" stroke-linecap="round"/>
  <circle cx="100" cy="58" r="24" fill="#E8A872"/>
  <circle cx="94" cy="53" r="2.5" fill="#374151"/>
  <circle cx="106" cy="53" r="2.5" fill="#374151"/>
  <path d="M94,64 Q100,69 106,64" stroke="#374151" stroke-width="2.5" fill="none" stroke-linecap="round"/>

  <path d="M145,55 A27,27 0 1 1 144,55" stroke="#F59E0B" stroke-width="4" fill="none" stroke-linecap="round"/>
  <polygon points="144,49 138,56 150,58" fill="#F59E0B"/>
</svg>
