<svg xmlns="http://www.w3.org/2000/svg" viewBox="0 0 200 200" width="200" height="200">
  <line x1="20" y1="188" x2="180" y2="188" stroke="#E5E7EB" stroke-width="4" stroke-linecap="round"/>

  <line x1="105" y1="152" x2="122" y2="170" stroke="#E8A872" stroke-width="24" stroke-linecap="round"/>
  <line x1="122" y1="170" x2="110" y2="184" stroke="#E8A872" stroke-width="22" stroke-linecap="round"/>
  <circle cx="122" cy="170" r="10" fill="#CF8E55"/>
  <line x1="105" y1="152" x2="115" y2="160" stroke="#7C3AED" stroke-width="24" stroke-linecap="round"/>
  <rect x="98" y="178" width="24" height="12" rx="6" fill="#FFFFFF" stroke="#9CA3AF" stroke-width="2"/>

  <line x1="105" y1="152" x2="85" y2="178" stroke="#E8A872" stroke-width="18" stroke-linecap="round"/>
  <line x1="85" y1="178" x2="65" y2="160" stroke="#E8A872" stroke-width="15" stroke-linecap="round"/>
  <circle cx="85" cy="178" r="8" fill="#CF8E55"/>
  <circle cx="65" cy="160" r="9" fill="#E8A872"/>

  <line x1="105" y1="152" x2="100" y2="108" stroke="#4F46E5" stroke-width="32" stroke-linecap="round"/>

  <line x1="100" y1="108" x2="76" y2="128" stroke="#E8A872" stroke-width="17" stroke-linecap="round"/>
  <line x1="100" y1="108" x2="88" y2="118" stroke="#4F46E5" stroke-width="17" stroke-linecap="round"/>
  <line x1="76" y1="128" x2="64" y2="156" stroke="#E8A872" stroke-width="15" stroke-linecap="round"/>
  <circle cx="64" cy="156" r="8" fill="#E8A872"/>

  <line x1="100" y1="108" x2="124" y2="112" stroke="#E8A872" stroke-width="16" stroke-linecap="round"/>
  <line x1="100" y1="108" x2="112" y2="110" stroke="#4F46E5" stroke-width="16" stroke-linecap="round"/>
  <circle cx="124" cy="112" r="8" fill="#E8A872"/>

  <line x1="100" y1="108" x2="100" y2="99" stroke="#E8A872" stroke-width="16" stroke-linecap="round"/>
  <circle cx="100" cy="82" r="24" fill="#E8A872"/>
  <circle cx="94" cy="77" r="2.5" fill="#374151"/>
  <circle cx="106" cy="77" r="2.5" fill="#374151"/>
  <path d="M94,88 Q100,93 106,88" stroke="#374151" stroke-width="2.5" fill="none" stroke-linecap="round"/>
</svg>
