<svg xmlns="http://www.w3.org/2000/svg" viewBox="0 0 200 200" width="200" height="200">
  <line x1="40" y1="188" x2="160" y2="188" stroke="#E5E7EB" stroke-width="4" stroke-linecap="round"/>

  <line x1="100" y1="140" x2="85" y2="184" stroke="#E8A872" stroke-width="24" stroke-linecap="round"/>
  <line x1="100" y1="140" x2="92" y2="156" stroke="#7C3AED" stroke-width="24" stroke-linecap="round"/>
  <rect x="73" y="178" width="24" height="12" rx="6" fill="#FFFFFF" stroke="#9CA3AF" stroke-width="2"/>

  <line x1="100" y1="140" x2="140" y2="150" stroke="#E8A872" stroke-width="22" stroke-linecap="round"/>
  <line x1="100" y1="140" x2="118" y2="145" stroke="#7C3AED" stroke-width="22" stroke-linecap="round"/>
  <circle cx="140" cy="150" r="8" fill="#E8A872"/>

  <line x1="100" y1="140" x2="135" y2="123" stroke="#4F46E5" stroke-width="30" stroke-linecap="round"/>

  <line x1="135" y1="123" x2="118" y2="113" stroke="#E8A872" stroke-width="16" stroke-linecap="round"/>
  <line x1="135" y1="123" x2="128" y2="119" stroke="#4F46E5" stroke-width="16" stroke-linecap="round"/>
  <circle cx="118" cy="113" r="8" fill="#CF8E55"/>
  <line x1="118" y1="113" x2="118" y2="98" stroke="#E8A872" stroke-width="16" stroke-linecap="round"/>
  <circle cx="118" cy="98" r="8" fill="#E8A872"/>

  <line x1="135" y1="123" x2="142" y2="115" stroke="#E8A872" stroke-width="14" stroke-linecap="round"/>
  <circle cx="150" cy="102" r="20" fill="#E8A872"/>
  <circle cx="144" cy="97" r="2.5" fill="#374151"/>
  <circle cx="154" cy="99" r="2.5" fill="#374151"/>
  <path d="M143,108 Q149,112 155,109" stroke="#374151" stroke-width="2.5" fill="none" stroke-linecap="round"/>
</svg>
