<svg xmlns="http://www.w3.org/2000/svg" viewBox="0 0 200 200" width="200" height="200">
  <line x1="40" y1="188" x2="160" y2="188" stroke="#E5E7EB" stroke-width="4" stroke-linecap="round"/>

  <line x1="100" y1="135" x2="60" y2="184" stroke="#E8A872" stroke-width="24" stroke-linecap="round"/>
  <line x1="100" y1="135" x2="85" y2="152" stroke="#7C3AED" stroke-width="24" stroke-linecap="round"/>
  <rect x="48" y="178" width="24" height="12" rx="6" fill="#FFFFFF" stroke="#9CA3AF" stroke-width="2"/>

  <line x1="100" y1="135" x2="112" y2="182" stroke="#E8A872" stroke-width="22" stroke-linecap="round"/>
  <line x1="100" y1="135" x2="105" y2="150" stroke="#7C3AED" stroke-width="22" stroke-linecap="round"/>
  <rect x="100" y="176" width="22" height="11" rx="5" fill="#FFFFFF" stroke="#9CA3AF" stroke-width="2"/>

  <line x1="100" y1="135" x2="100" y2="88" stroke="#4F46E5" stroke-width="34" stroke-linecap="round"/>

  <line x1="100" y1="88" x2="72" y2="110" stroke="#E8A872" stroke-width="18" stroke-linecap="round"/>
  <line x1="100" y1="88" x2="89" y2="97" stroke="#4F46E5" stroke-width="18" stroke-linecap="round"/>
  <circle cx="72" cy="110" r="9" fill="#E8A872"/>

  <line x1="100" y1="88" x2="128" y2="105" stroke="#E8A872" stroke-width="18" stroke-linecap="round"/>
  <line x1="100" y1="88" x2="111" y2="95" stroke="#4F46E5" stroke-width="18" stroke-linecap="round"/>
  <circle cx="128" cy="105" r="9" fill="#E8A872"/>

  <circle cx="100" cy="60" r="23" fill="#E8A872"/>
  <circle cx="94" cy="55" r="2.5" fill="#374151"/>
  <circle cx="106" cy="55" r="2.5" fill="#374151"/>
  <path d="M94,67 Q100,72 106,67" stroke="#374151" stroke-width="2.5" fill="none" stroke-linecap="round"/>

  <path d="M50,182 L38,182" stroke="#F59E0B" stroke-width="2.5" stroke-linecap="round" stroke-dasharray="2,3"/>
  <path d="M112,168 L112,160" stroke="#F59E0B" stroke-width="2.5" stroke-linecap="round" stroke-dasharray="2,3"/>
</svg>
