<svg xmlns="http://www.w3.org/2000/svg" viewBox="0 0 200 200" width="200" height="200">
  <line x1="40" y1="188" x2="160" y2="188" stroke="#E5E7EB" stroke-width="4" stroke-linecap="round"/>
  <rect x="70" y="150" width="60" height="38" rx="4" fill="#C7D2FE" stroke="#A5B4FC" stroke-width="2"/>

  <line x1="100" y1="128" x2="100" y2="150" stroke="#E8A872" stroke-width="24" stroke-linecap="round"/>
  <line x1="100" y1="128" x2="100" y2="140" stroke="#7C3AED" stroke-width="24" stroke-linecap="round"/>
  <rect x="88" y="144" width="24" height="10" rx="5" fill="#FFFFFF" stroke="#9CA3AF" stroke-width="2"/>

  <line x1="100" y1="128" x2="85" y2="145" stroke="#E8A872" stroke-width="22" stroke-linecap="round"/>
  <line x1="85" y1="145" x2="78" y2="175" stroke="#E8A872" stroke-width="22" stroke-linecap="round"/>
  <circle cx="85" cy="145" r="9" fill="#CF8E55"/>
  <line x1="100" y1="128" x2="93" y2="136" stroke="#7C3AED" stroke-width="22" stroke-linecap="round"/>
  <circle cx="78" cy="175" r="8" fill="#E8A872"/>

  <line x1="100" y1="128" x2="100" y2="82" stroke="#4F46E5" stroke-width="34" stroke-linecap="round"/>

  <line x1="100" y1="82" x2="62" y2="74" stroke="#E8A872" stroke-width="18" stroke-linecap="round"/>
  <line x1="100" y1="82" x2="83" y2="78" stroke="#4F46E5" stroke-width="18" stroke-linecap="round"/>
  <circle cx="62" cy="74" r="8" fill="#E8A872"/>

  <line x1="100" y1="82" x2="138" y2="74" stroke="#E8A872" stroke-width="18" stroke-linecap="round"/>
  <line x1="100" y1="82" x2="117" y2="78" stroke="#4F46E5" stroke-width="18" stroke-linecap="round"/>
  <circle cx="138" cy="74" r="8" fill="#E8A872"/>

  <line x1="100" y1="82" x2="100" y2="76" stroke="#E8A872" stroke-width="15" stroke-linecap="round"/>
  <circle cx="100" cy="58" r="24" fill="#E8A872"/>
  <circle cx="94" cy="53" r="2.5" fill="#374151"/>
  <circle cx="106" cy="53" r="2.5" fill="#374151"/>
  <path d="M94,64 Q100,69 106,64" stroke="#374151" stroke-width="2.5" fill="none" stroke-linecap="round"/>
</svg>
