<svg xmlns="http://www.w3.org/2000/svg" viewBox="0 0 200 200" width="200" height="200">
  <line x1="20" y1="188" x2="180" y2="188" stroke="#E5E7EB" stroke-width="4" stroke-linecap="round"/>

  <line x1="90" y1="172" x2="72" y2="112" stroke="#4F46E5" stroke-width="28" stroke-linecap="round"/>

  <line x1="90" y1="172" x2="118" y2="90" stroke="#E8A872" stroke-width="22" stroke-linecap="round"/>
  <line x1="90" y1="172" x2="108" y2="123" stroke="#7C3AED" stroke-width="22" stroke-linecap="round"/>
  <circle cx="118" cy="90" r="9" fill="#E8A872"/>

  <line x1="90" y1="172" x2="172" y2="152" stroke="#E8A872" stroke-width="20" stroke-linecap="round"/>
  <line x1="90" y1="172" x2="140" y2="163" stroke="#7C3AED" stroke-width="20" stroke-linecap="round"/>
  <circle cx="172" cy="152" r="9" fill="#E8A872"/>

  <line x1="72" y1="112" x2="112" y2="100" stroke="#E8A872" stroke-width="16" stroke-linecap="round"/>
  <line x1="72" y1="112" x2="94" y2="105" stroke="#4F46E5" stroke-width="16" stroke-linecap="round"/>
  <circle cx="112" cy="100" r="8" fill="#E8A872"/>

  <line x1="72" y1="112" x2="80" y2="104" stroke="#E8A872" stroke-width="15" stroke-linecap="round"/>
  <circle cx="59" cy="95" r="23" fill="#E8A872"/>
  <circle cx="53" cy="90" r="2.5" fill="#374151"/>
  <circle cx="64" cy="92" r="2.5" fill="#374151"/>
  <path d="M52,100 Q58,104 64,101" stroke="#374151" stroke-width="2.5" fill="none" stroke-linecap="round"/>
</svg>
