<svg xmlns="http://www.w3.org/2000/svg" viewBox="0 0 200 200" width="200" height="200">
  <rect x="20" y="176" width="170" height="14" rx="7" fill="#D1D5DB"/>

  <line x1="75" y1="158" x2="125" y2="158" stroke="#4F46E5" stroke-width="32" stroke-linecap="round"/>

  <line x1="125" y1="158" x2="122" y2="108" stroke="#E8A872" stroke-width="28" stroke-linecap="round"/>
  <line x1="125" y1="158" x2="124" y2="135" stroke="#7C3AED" stroke-width="28" stroke-linecap="round"/>
  <rect x="111" y="100" width="22" height="10" rx="5" fill="#FFFFFF" stroke="#9CA3AF" stroke-width="2"/>

  <line x1="75" y1="158" x2="60" y2="150" stroke="#E8A872" stroke-width="16" stroke-linecap="round"/>
  <line x1="75" y1="158" x2="67" y2="154" stroke="#4F46E5" stroke-width="16" stroke-linecap="round"/>
  <circle cx="60" cy="150" r="8" fill="#E8A872"/>

  <line x1="75" y1="158" x2="85" y2="140" stroke="#E8A872" stroke-width="16" stroke-linecap="round"/>
  <line x1="75" y1="158" x2="80" y2="149" stroke="#4F46E5" stroke-width="16" stroke-linecap="round"/>
  <circle cx="85" cy="140" r="8" fill="#CF8E55"/>
  <line x1="85" y1="140" x2="95" y2="135" stroke="#E8A872" stroke-width="16" stroke-linecap="round"/>
  <circle cx="95" cy="135" r="8" fill="#E8A872"/>

  <line x1="75" y1="158" x2="66" y2="156" stroke="#E8A872" stroke-width="15" stroke-linecap="round"/>
  <circle cx="55" cy="155" r="22" fill="#E8A872"/>
  <circle cx="49" cy="150" r="2.5" fill="#374151"/>
  <circle cx="61" cy="150" r="2.5" fill="#374151"/>
  <path d="M49,161 Q55,165 61,161" stroke="#374151" stroke-width="2.5" fill="none" stroke-linecap="round"/>

  <path d="M145,140 L145,110" stroke="#F59E0B" stroke-width="2.5" stroke-linecap="round" stroke-dasharray="2,3"/>
  <polygon points="145,104 140,112 150,112" fill="#F59E0B"/>
</svg>
