<svg xmlns="http://www.w3.org/2000/svg" viewBox="0 0 200 200" width="200" height="200">
  <rect x="20" y="176" width="170" height="14" rx="7" fill="#D1D5DB"/>

  <line x1="65" y1="155" x2="35" y2="163" stroke="#E8A872" stroke-width="20" stroke-linecap="round"/>
  <circle cx="35" cy="163" r="8" fill="#E8A872"/>
  <line x1="65" y1="155" x2="53" y2="158" stroke="#7C3AED" stroke-width="20" stroke-linecap="round"/>

  <path d="M65,155 Q100,135 128,140" stroke="#4F46E5" stroke-width="30" fill="none" stroke-linecap="round"/>

  <line x1="128" y1="140" x2="168" y2="100" stroke="#E8A872" stroke-width="16" stroke-linecap="round"/>
  <circle cx="168" cy="100" r="8" fill="#E8A872"/>
  <line x1="128" y1="140" x2="145" y2="123" stroke="#4F46E5" stroke-width="16" stroke-linecap="round"/>

  <line x1="128" y1="140" x2="135" y2="128" stroke="#E8A872" stroke-width="15" stroke-linecap="round"/>
  <circle cx="142" cy="115" r="22" fill="#E8A872"/>
  <circle cx="136" cy="110" r="2.5" fill="#374151"/>
  <circle cx="148" cy="110" r="2.5" fill="#374151"/>
  <path d="M136,121 Q142,125 148,121" stroke="#374151" stroke-width="2.5" fill="none" stroke-linecap="round"/>

  <path d="M30,155 L24,148" stroke="#F59E0B" stroke-width="2.5" stroke-linecap="round" stroke-dasharray="2,3"/>
  <path d="M172,92 L178,85" stroke="#F59E0B" stroke-width="2.5" stroke-linecap="round" stroke-dasharray="2,3"/>
</svg>
