<svg xmlns="http://www.w3.org/2000/svg" viewBox="0 0 200 200" width="200" height="200">
  <line x1="20" y1="188" x2="180" y2="188" stroke="#E5E7EB" stroke-width="4" stroke-linecap="round"/>
  <ellipse cx="100" cy="186" rx="26" ry="6" fill="#E5E7EB" opacity="0.4"/>

  <line x1="100" y1="112" x2="82" y2="102" stroke="#E8A872" stroke-width="22" stroke-linecap="round"/>
  <line x1="82" y1="102" x2="90" y2="127" stroke="#E8A872" stroke-width="20" stroke-linecap="round"/>
  <circle cx="82" cy="102" r="9" fill="#CF8E55"/>
  <line x1="100" y1="112" x2="90" y2="106" stroke="#7C3AED" stroke-width="22" stroke-linecap="round"/>
  <circle cx="90" cy="127" r="9" fill="#E8A872"/>

  <line x1="100" y1="112" x2="118" y2="102" stroke="#E8A872" stroke-width="22" stroke-linecap="round"/>
  <line x1="118" y1="102" x2="110" y2="127" stroke="#E8A872" stroke-width="20" stroke-linecap="round"/>
  <circle cx="118" cy="102" r="9" fill="#CF8E55"/>
  <line x1="100" y1="112" x2="110" y2="106" stroke="#7C3AED" stroke-width="22" stroke-linecap="round"/>
  <circle cx="110" cy="127" r="9" fill="#E8A872"/>

  <line x1="100" y1="112" x2="100" y2="70" stroke="#4F46E5" stroke-width="34" stroke-linecap="round"/>

  <line x1="100" y1="70" x2="76" y2="74" stroke="#E8A872" stroke-width="17" stroke-linecap="round"/>
  <line x1="100" y1="70" x2="86" y2="72" stroke="#4F46E5" stroke-width="17" stroke-linecap="round"/>
  <line x1="76" y1="74" x2="62" y2="76" stroke="#E8A872" stroke-width="17" stroke-linecap="round"/>
  <circle cx="62" cy="76" r="9" fill="#E8A872"/>

  <line x1="100" y1="70" x2="124" y2="74" stroke="#E8A872" stroke-width="17" stroke-linecap="round"/>
  <line x1="100" y1="70" x2="114" y2="72" stroke="#4F46E5" stroke-width="17" stroke-linecap="round"/>
  <line x1="124" y1="74" x2="138" y2="76" stroke="#E8A872" stroke-width="17" stroke-linecap="round"/>
  <circle cx="138" cy="76" r="9" fill="#E8A872"/>

  <line x1="100" y1="70" x2="100" y2="61" stroke="#E8A872" stroke-width="16" stroke-linecap="round"/>
  <circle cx="100" cy="44" r="24" fill="#E8A872"/>
  <circle cx="94" cy="39" r="2.5" fill="#374151"/>
  <circle cx="106" cy="39" r="2.5" fill="#374151"/>
  <path d="M94,50 Q100,55 106,50" stroke="#374151" stroke-width="2.5" fill="none" stroke-linecap="round"/>

  <path d="M100,182 L100,138" stroke="#F59E0B" stroke-width="5" stroke-linecap="round"/>
  <polygon points="100,132 92,145 108,145" fill="#F59E0B"/>
</svg>
