<svg xmlns="http://www.w3.org/2000/svg" viewBox="0 0 200 200" width="200" height="200">
  <rect x="8" y="6" width="14" height="186" rx="3" fill="#C7D2FE"/>
  <line x1="22" y1="6" x2="22" y2="192" stroke="#A5B4FC" stroke-width="2"/>
  <line x1="22" y1="190" x2="180" y2="190" stroke="#E5E7EB" stroke-width="4" stroke-linecap="round"/>

  <line x1="38" y1="140" x2="75" y2="140" stroke="#E8A872" stroke-width="24" stroke-linecap="round"/>
  <line x1="75" y1="140" x2="75" y2="184" stroke="#E8A872" stroke-width="24" stroke-linecap="round"/>
  <circle cx="75" cy="140" r="10" fill="#CF8E55"/>
  <line x1="38" y1="140" x2="60" y2="140" stroke="#7C3AED" stroke-width="24" stroke-linecap="round"/>
  <rect x="63" y="178" width="24" height="12" rx="6" fill="#FFFFFF" stroke="#9CA3AF" stroke-width="2"/>

  <line x1="38" y1="95" x2="38" y2="140" stroke="#4F46E5" stroke-width="32" stroke-linecap="round"/>

  <line x1="38" y1="95" x2="30" y2="125" stroke="#E8A872" stroke-width="16" stroke-linecap="round"/>
  <line x1="38" y1="95" x2="33" y2="110" stroke="#4F46E5" stroke-width="16" stroke-linecap="round"/>
  <circle cx="30" cy="125" r="8" fill="#E8A872"/>

  <line x1="38" y1="95" x2="42" y2="84" stroke="#E8A872" stroke-width="15" stroke-linecap="round"/>
  <circle cx="45" cy="72" r="23" fill="#E8A872"/>
  <circle cx="39" cy="67" r="2.5" fill="#374151"/>
  <circle cx="51" cy="67" r="2.5" fill="#374151"/>
  <path d="M39,78 Q45,83 51,78" stroke="#374151" stroke-width="2.5" fill="none" stroke-linecap="round"/>
</svg>
