<svg xmlns="http://www.w3.org/2000/svg" viewBox="0 0 200 200" width="200" height="200">
  <line x1="20" y1="188" x2="180" y2="188" stroke="#E5E7EB" stroke-width="4" stroke-linecap="round"/>

  <line x1="100" y1="140" x2="72" y2="160" stroke="#E8A872" stroke-width="24" stroke-linecap="round"/>
  <line x1="72" y1="160" x2="68" y2="184" stroke="#E8A872" stroke-width="24" stroke-linecap="round"/>
  <circle cx="72" cy="160" r="10" fill="#CF8E55"/>
  <line x1="100" y1="140" x2="83" y2="152" stroke="#7C3AED" stroke-width="24" stroke-linecap="round"/>
  <rect x="56" y="178" width="24" height="12" rx="6" fill="#FFFFFF" stroke="#9CA3AF" stroke-width="2"/>

  <line x1="100" y1="140" x2="150" y2="168" stroke="#E8A872" stroke-width="18" stroke-linecap="round"/>
  <line x1="100" y1="140" x2="122" y2="152" stroke="#7C3AED" stroke-width="18" stroke-linecap="round"/>
  <circle cx="165" cy="176" r="8" fill="#E8A872"/>
  <line x1="150" y1="168" x2="165" y2="176" stroke="#E8A872" stroke-width="18" stroke-linecap="round"/>

  <line x1="100" y1="140" x2="85" y2="100" stroke="#4F46E5" stroke-width="32" stroke-linecap="round"/>

  <line x1="85" y1="100" x2="65" y2="118" stroke="#E8A872" stroke-width="16" stroke-linecap="round"/>
  <line x1="85" y1="100" x2="76" y2="109" stroke="#4F46E5" stroke-width="16" stroke-linecap="round"/>
  <circle cx="65" cy="118" r="8" fill="#CF8E55"/>
  <line x1="65" y1="118" x2="58" y2="136" stroke="#E8A872" stroke-width="16" stroke-linecap="round"/>
  <circle cx="58" cy="136" r="8" fill="#E8A872"/>

  <line x1="85" y1="100" x2="102" y2="78" stroke="#E8A872" stroke-width="16" stroke-linecap="round"/>
  <line x1="85" y1="100" x2="94" y2="90" stroke="#4F46E5" stroke-width="16" stroke-linecap="round"/>
  <circle cx="102" cy="78" r="8" fill="#CF8E55"/>
  <line x1="102" y1="78" x2="115" y2="56" stroke="#E8A872" stroke-width="16" stroke-linecap="round"/>
  <circle cx="115" cy="56" r="9" fill="#E8A872"/>

  <line x1="85" y1="100" x2="90" y2="92" stroke="#E8A872" stroke-width="14" stroke-linecap="round"/>
  <circle cx="95" cy="78" r="22" fill="#E8A872"/>
  <circle cx="89" cy="73" r="2.5" fill="#374151"/>
  <circle cx="101" cy="73" r="2.5" fill="#374151"/>
  <path d="M89,84 Q95,88 101,84" stroke="#374151" stroke-width="2.5" fill="none" stroke-linecap="round"/>
</svg>
