<svg xmlns="http://www.w3.org/2000/svg" viewBox="0 0 200 200" width="200" height="200">
  <rect x="30" y="176" width="150" height="14" rx="7" fill="#D1D5DB"/>

  <path d="M72,150 Q102,138 132,148" stroke="#4F46E5" stroke-width="30" fill="none" stroke-linecap="round"/>

  <line x1="72" y1="150" x2="66" y2="172" stroke="#E8A872" stroke-width="18" stroke-linecap="round"/>
  <line x1="72" y1="150" x2="70" y2="161" stroke="#7C3AED" stroke-width="18" stroke-linecap="round"/>
  <circle cx="66" cy="172" r="9" fill="#E8A872"/>

  <line x1="132" y1="148" x2="140" y2="172" stroke="#E8A872" stroke-width="18" stroke-linecap="round"/>
  <line x1="132" y1="148" x2="136" y2="160" stroke="#7C3AED" stroke-width="18" stroke-linecap="round"/>
  <circle cx="140" cy="172" r="9" fill="#E8A872"/>

  <line x1="72" y1="150" x2="83" y2="132" stroke="#E8A872" stroke-width="16" stroke-linecap="round"/>
  <circle cx="92" cy="118" r="22" fill="#E8A872"/>
  <circle cx="85" cy="113" r="2.5" fill="#374151"/>
  <circle cx="97" cy="113" r="2.5" fill="#374151"/>
  <path d="M85,124 Q91,128 97,124" stroke="#374151" stroke-width="2.5" fill="none" stroke-linecap="round"/>

  <path d="M78,160 A16,16 0 1 1 76,159" stroke="#F59E0B" stroke-width="4" fill="none" stroke-linecap="round"/>
  <polygon points="80,145 73,158 87,157" fill="#F59E0B"/>
</svg>
