<svg xmlns="http://www.w3.org/2000/svg" viewBox="0 0 200 200" width="200" height="200">
  <line x1="40" y1="188" x2="160" y2="188" stroke="#E5E7EB" stroke-width="4" stroke-linecap="round"/>

  <circle cx="100" cy="68" r="21" fill="#E5E7EB" opacity="0.3"/>
  <path d="M93,93 Q85,82 92,70" stroke="#E8A872" stroke-width="8" fill="none" stroke-linecap="round" opacity="0.6"/>

  <line x1="100" y1="140" x2="86" y2="184" stroke="#E8A872" stroke-width="24" stroke-linecap="round"/>
  <line x1="100" y1="140" x2="114" y2="184" stroke="#E8A872" stroke-width="24" stroke-linecap="round"/>
  <line x1="100" y1="140" x2="92" y2="160" stroke="#7C3AED" stroke-width="24" stroke-linecap="round"/>
  <line x1="100" y1="140" x2="108" y2="160" stroke="#7C3AED" stroke-width="24" stroke-linecap="round"/>
  <rect x="74" y="178" width="24" height="12" rx="6" fill="#FFFFFF" stroke="#9CA3AF" stroke-width="2"/>
  <rect x="102" y="178" width="24" height="12" rx="6" fill="#FFFFFF" stroke="#9CA3AF" stroke-width="2"/>

  <line x1="100" y1="140" x2="100" y2="95" stroke="#4F46E5" stroke-width="34" stroke-linecap="round"/>

  <line x1="100" y1="95" x2="78" y2="80" stroke="#E8A872" stroke-width="16" stroke-linecap="round"/>
  <line x1="100" y1="95" x2="86" y2="90" stroke="#4F46E5" stroke-width="16" stroke-linecap="round"/>
  <circle cx="78" cy="80" r="8" fill="#CF8E55"/>
  <line x1="78" y1="80" x2="108" y2="62" stroke="#E8A872" stroke-width="16" stroke-linecap="round"/>
  <circle cx="108" cy="62" r="9" fill="#E8A872"/>

  <line x1="100" y1="95" x2="115" y2="85" stroke="#E8A872" stroke-width="16" stroke-linecap="round"/>
  <circle cx="122" cy="80" r="23" fill="#E8A872"/>

  <g transform="rotate(22 122 80)">
    <path d="M114,75 Q117,77 120,75" stroke="#374151" stroke-width="2" fill="none" stroke-linecap="round"/>
    <path d="M125,76 Q128,78 131,76" stroke="#374151" stroke-width="2" fill="none" stroke-linecap="round"/>
    <path d="M116,86 Q122,90 128,87" stroke="#374151" stroke-width="2.5" fill="none" stroke-linecap="round"/>
  </g>

  <path d="M70,78 Q74,83 70,88" stroke="#F59E0B" stroke-width="2" fill="none" stroke-linecap="round" stroke-dasharray="2,3"/>
  <path d="M62,81 Q66,85 62,90" stroke="#F59E0B" stroke-width="2" fill="none" stroke-linecap="round" stroke-dasharray="2,3"/>
</svg>
