<svg xmlns="http://www.w3.org/2000/svg" viewBox="0 0 200 200" width="200" height="200">
  <line x1="20" y1="188" x2="180" y2="188" stroke="#E5E7EB" stroke-width="4" stroke-linecap="round"/>

  <line x1="72" y1="172" x2="72" y2="188" stroke="#9CA3AF" stroke-width="5" stroke-linecap="round"/>
  <line x1="128" y1="172" x2="128" y2="188" stroke="#9CA3AF" stroke-width="5" stroke-linecap="round"/>
  <rect x="55" y="158" width="90" height="14" rx="7" fill="#D1D5DB"/>
  <line x1="55" y1="158" x2="145" y2="158" stroke="#9CA3AF" stroke-width="2"/>

  <line x1="100" y1="156" x2="86" y2="172" stroke="#E8A872" stroke-width="24" stroke-linecap="round"/>
  <line x1="86" y1="172" x2="82" y2="186" stroke="#E8A872" stroke-width="24" stroke-linecap="round"/>
  <circle cx="86" cy="172" r="10" fill="#CF8E55"/>
  <line x1="100" y1="156" x2="93" y2="164" stroke="#7C3AED" stroke-width="24" stroke-linecap="round"/>
  <rect x="70" y="180" width="24" height="12" rx="6" fill="#FFFFFF" stroke="#9CA3AF" stroke-width="2"/>

  <line x1="100" y1="156" x2="122" y2="110" stroke="#E8A872" stroke-width="24" stroke-linecap="round"/>
  <line x1="122" y1="110" x2="110" y2="130" stroke="#E8A872" stroke-width="24" stroke-linecap="round"/>
  <circle cx="122" cy="110" r="10" fill="#CF8E55"/>
  <line x1="100" y1="156" x2="113" y2="128" stroke="#7C3AED" stroke-width="24" stroke-linecap="round"/>
  <rect x="98" y="124" width="22" height="12" rx="6" fill="#FFFFFF" stroke="#9CA3AF" stroke-width="2"/>

  <line x1="100" y1="156" x2="100" y2="105" stroke="#4F46E5" stroke-width="34" stroke-linecap="round"/>

  <line x1="100" y1="105" x2="85" y2="128" stroke="#E8A872" stroke-width="18" stroke-linecap="round"/>
  <line x1="100" y1="105" x2="90" y2="118" stroke="#4F46E5" stroke-width="18" stroke-linecap="round"/>
  <circle cx="85" cy="128" r="8" fill="#CF8E55"/>
  <line x1="85" y1="128" x2="76" y2="154" stroke="#E8A872" stroke-width="18" stroke-linecap="round"/>
  <circle cx="76" cy="154" r="9" fill="#E8A872"/>

  <line x1="100" y1="105" x2="100" y2="96" stroke="#E8A872" stroke-width="16" stroke-linecap="round"/>
  <circle cx="100" cy="80" r="24" fill="#E8A872"/>
  <circle cx="94" cy="75" r="2.5" fill="#374151"/>
  <circle cx="106" cy="75" r="2.5" fill="#374151"/>
  <path d="M94,86 Q100,91 106,86" stroke="#374151" stroke-width="2.5" fill="none" stroke-linecap="round"/>

  <line x1="138" y1="145" x2="138" y2="112" stroke="#F59E0B" stroke-width="3" stroke-linecap="round" stroke-dasharray="3,4"/>
  <polygon points="138,104 131,116 145,116" fill="#F59E0B"/>
</svg>
