<svg xmlns="http://www.w3.org/2000/svg" viewBox="0 0 200 200" width="200" height="200">
  <rect x="165" y="6" width="14" height="186" rx="3" fill="#C7D2FE"/>
  <line x1="165" y1="6" x2="165" y2="192" stroke="#A5B4FC" stroke-width="2"/>
  <line x1="20" y1="190" x2="165" y2="190" stroke="#E5E7EB" stroke-width="4" stroke-linecap="round"/>

  <circle cx="88" cy="40" r="18" fill="#E5E7EB" opacity="0.3"/>
  <line x1="85" y1="118" x2="90" y2="60" stroke="#E5E7EB" stroke-width="28" stroke-linecap="round" opacity="0.3"/>
  <line x1="90" y1="60" x2="108" y2="52" stroke="#E5E7EB" stroke-width="12" stroke-linecap="round" opacity="0.3"/>

  <line x1="95" y1="148" x2="70" y2="186" stroke="#E8A872" stroke-width="24" stroke-linecap="round"/>
  <line x1="95" y1="148" x2="86" y2="186" stroke="#E8A872" stroke-width="24" stroke-linecap="round"/>
  <line x1="95" y1="148" x2="82" y2="164" stroke="#7C3AED" stroke-width="24" stroke-linecap="round"/>
  <line x1="95" y1="148" x2="90" y2="166" stroke="#7C3AED" stroke-width="24" stroke-linecap="round"/>
  <rect x="58" y="180" width="24" height="12" rx="6" fill="#FFFFFF" stroke="#9CA3AF" stroke-width="2"/>
  <rect x="74" y="180" width="24" height="12" rx="6" fill="#FFFFFF" stroke="#9CA3AF" stroke-width="2"/>

  <line x1="95" y1="148" x2="128" y2="90" stroke="#4F46E5" stroke-width="34" stroke-linecap="round"/>

  <line x1="128" y1="90" x2="153" y2="73" stroke="#E8A872" stroke-width="16" stroke-linecap="round"/>
  <line x1="128" y1="90" x2="136" y2="85" stroke="#4F46E5" stroke-width="16" stroke-linecap="round"/>
  <circle cx="153" cy="73" r="9" fill="#CF8E55"/>
  <line x1="153" y1="73" x2="162" y2="66" stroke="#E8A872" stroke-width="16" stroke-linecap="round"/>

  <line x1="128" y1="90" x2="155" y2="102" stroke="#E8A872" stroke-width="16" stroke-linecap="round"/>
  <line x1="128" y1="90" x2="136" y2="95" stroke="#4F46E5" stroke-width="16" stroke-linecap="round"/>
  <circle cx="155" cy="102" r="9" fill="#CF8E55"/>
  <line x1="155" y1="102" x2="162" y2="108" stroke="#E8A872" stroke-width="16" stroke-linecap="round"/>

  <circle cx="167" cy="66" r="6" fill="#FFFFFF" stroke="#9CA3AF" stroke-width="2"/>
  <circle cx="160" cy="66" r="9" fill="#E8A872"/>
  <circle cx="167" cy="108" r="6" fill="#FFFFFF" stroke="#9CA3AF" stroke-width="2"/>
  <circle cx="160" cy="108" r="9" fill="#E8A872"/>

  <line x1="128" y1="90" x2="129" y2="80" stroke="#E8A872" stroke-width="16" stroke-linecap="round"/>
  <circle cx="130" cy="58" r="22" fill="#E8A872"/>
  <circle cx="124" cy="53" r="2.5" fill="#374151"/>
  <circle cx="136" cy="53" r="2.5" fill="#374151"/>
  <path d="M124,64 Q130,69 136,64" stroke="#374151" stroke-width="2.5" fill="none" stroke-linecap="round"/>

  <line x1="140" y1="128" x2="160" y2="128" stroke="#F59E0B" stroke-width="3" stroke-linecap="round" stroke-dasharray="3,3"/>
  <polygon points="140,128 146,123 146,133" fill="#F59E0B"/>
  <polygon points="160,128 154,123 154,133" fill="#F59E0B"/>
</svg>
