<svg xmlns="http://www.w3.org/2000/svg" viewBox="0 0 200 200" width="200" height="200">
  <path d="M138,142 Q170,130 162,95 Q158,72 138,68" stroke="#CF8E55" stroke-width="26" fill="none" stroke-linecap="round"/>
  <line x1="155" y1="118" x2="172" y2="132" stroke="#F3F4F6" stroke-width="11" stroke-linecap="round"/>
  <line x1="148" y1="93" x2="170" y2="103" stroke="#F3F4F6" stroke-width="11" stroke-linecap="round"/>
  <line x1="133" y1="68" x2="152" y2="80" stroke="#F3F4F6" stroke-width="11" stroke-linecap="round"/>

  <line x1="90" y1="148" x2="80" y2="181" stroke="#CF8E55" stroke-width="24" stroke-linecap="round"/>
  <circle cx="78" cy="184" r="12" fill="#CF8E55"/>
  <line x1="110" y1="148" x2="120" y2="181" stroke="#CF8E55" stroke-width="24" stroke-linecap="round"/>
  <circle cx="122" cy="184" r="12" fill="#CF8E55"/>

  <ellipse cx="100" cy="120" rx="42" ry="46" fill="#E8A872"/>
  <ellipse cx="100" cy="128" rx="26" ry="30" fill="#F3F4F6"/>

  <path d="M82,98 L118,98 L100,118 Z" fill="#4F46E5" stroke="#4338CA" stroke-width="1.5" stroke-linejoin="round"/>

  <path d="M122,105 L158,112 L128,118" stroke="#CF8E55" stroke-width="23" fill="none" stroke-linecap="round" stroke-linejoin="round"/>
  <path d="M122,105 L158,112 L128,118" stroke="#E8A872" stroke-width="19" fill="none" stroke-linecap="round" stroke-linejoin="round"/>
  <circle cx="128" cy="118" r="13.5" fill="#CF8E55"/>
  <circle cx="128" cy="118" r="11.5" fill="#E8A872"/>

  <path d="M78,105 L42,112 L72,118" stroke="#CF8E55" stroke-width="23" fill="none" stroke-linecap="round" stroke-linejoin="round"/>
  <path d="M78,105 L42,112 L72,118" stroke="#E8A872" stroke-width="19" fill="none" stroke-linecap="round" stroke-linejoin="round"/>
  <circle cx="72" cy="118" r="14.5" fill="#CF8E55"/>
  <circle cx="72" cy="118" r="12.5" fill="#E8A872"/>
  <circle cx="72" cy="118" r="7" fill="#F3F4F6"/>

  <g transform="translate(0,-3)">
    <circle cx="72" cy="40" r="14" fill="#CF8E55"/>
    <circle cx="72" cy="42" r="7" fill="#F3F4F6"/>
    <circle cx="128" cy="40" r="14" fill="#CF8E55"/>
    <circle cx="128" cy="42" r="7" fill="#F3F4F6"/>

    <circle cx="100" cy="70" r="44" fill="#E8A872"/>

    <ellipse cx="100" cy="85" rx="22" ry="16" fill="#F3F4F6"/>

    <ellipse cx="82" cy="68" rx="20" ry="14" fill="#7C3AED"/>
    <ellipse cx="118" cy="68" rx="20" ry="14" fill="#7C3AED"/>

    <circle cx="82" cy="68" r="9" fill="#FFFFFF"/>
    <circle cx="118" cy="68" r="9" fill="#FFFFFF"/>
    <circle cx="84" cy="70" r="4.5" fill="#1F2937"/>
    <circle cx="116" cy="70" r="4.5" fill="#1F2937"/>
    <circle cx="86" cy="67" r="1.5" fill="#FFFFFF"/>
    <circle cx="118" cy="67" r="1.5" fill="#FFFFFF"/>

    <ellipse cx="100" cy="82" rx="5" ry="4" fill="#1F2937"/>
    <path d="M90,92 Q100,98 110,92" stroke="#374151" stroke-width="2.5" fill="none" stroke-linecap="round"/>
  </g>
</svg>
