<svg xmlns="http://www.w3.org/2000/svg" viewBox="0 0 200 200" width="200" height="200">
  <rect x="30" y="176" width="150" height="14" rx="7" fill="#D1D5DB"/>

  <path d="M78,152 Q105,160 135,140" stroke="#E5E7EB" stroke-width="28" fill="none" stroke-linecap="round" opacity="0.3"/>

  <line x1="78" y1="152" x2="75" y2="178" stroke="#E8A872" stroke-width="22" stroke-linecap="round"/>
  <line x1="75" y1="178" x2="60" y2="182" stroke="#E8A872" stroke-width="18" stroke-linecap="round"/>
  <circle cx="75" cy="178" r="9" fill="#CF8E55"/>
  <line x1="78" y1="152" x2="76" y2="164" stroke="#7C3AED" stroke-width="22" stroke-linecap="round"/>

  <path d="M78,152 Q105,128 135,140" stroke="#4F46E5" stroke-width="32" fill="none" stroke-linecap="round"/>

  <line x1="135" y1="140" x2="158" y2="172" stroke="#E8A872" stroke-width="16" stroke-linecap="round"/>
  <line x1="135" y1="140" x2="142" y2="152" stroke="#4F46E5" stroke-width="16" stroke-linecap="round"/>
  <circle cx="158" cy="172" r="9" fill="#E8A872"/>

  <line x1="135" y1="140" x2="142" y2="128" stroke="#E8A872" stroke-width="15" stroke-linecap="round"/>
  <circle cx="148" cy="118" r="22" fill="#E8A872"/>
  <circle cx="142" cy="113" r="2.5" fill="#374151"/>
  <circle cx="154" cy="113" r="2.5" fill="#374151"/>
  <path d="M142,124 Q148,128 154,124" stroke="#374151" stroke-width="2.5" fill="none" stroke-linecap="round"/>

  <path d="M100,145 Q105,135 110,145" stroke="#F59E0B" stroke-width="2.5" fill="none" stroke-linecap="round" stroke-dasharray="2,3"/>
</svg>
