<svg xmlns="http://www.w3.org/2000/svg" viewBox="0 0 200 200" width="200" height="200">
  <rect x="40" y="170" width="140" height="14" rx="7" fill="#D1D5DB"/>

  <line x1="78" y1="150" x2="130" y2="118" stroke="#E5E7EB" stroke-width="30" stroke-linecap="round" opacity="0.3"/>

  <line x1="78" y1="150" x2="70" y2="178" stroke="#E8A872" stroke-width="22" stroke-linecap="round"/>
  <line x1="70" y1="178" x2="55" y2="168" stroke="#E8A872" stroke-width="22" stroke-linecap="round"/>
  <circle cx="70" cy="178" r="9" fill="#CF8E55"/>
  <line x1="78" y1="150" x2="73" y2="164" stroke="#7C3AED" stroke-width="22" stroke-linecap="round"/>

  <line x1="78" y1="150" x2="130" y2="140" stroke="#4F46E5" stroke-width="32" stroke-linecap="round"/>

  <line x1="130" y1="140" x2="140" y2="158" stroke="#E8A872" stroke-width="16" stroke-linecap="round"/>
  <line x1="130" y1="140" x2="135" y2="148" stroke="#4F46E5" stroke-width="16" stroke-linecap="round"/>
  <circle cx="140" cy="158" r="8" fill="#CF8E55"/>
  <line x1="140" y1="158" x2="150" y2="172" stroke="#E8A872" stroke-width="16" stroke-linecap="round"/>
  <circle cx="150" cy="172" r="9" fill="#E8A872"/>

  <line x1="130" y1="140" x2="140" y2="134" stroke="#E8A872" stroke-width="15" stroke-linecap="round"/>
  <circle cx="148" cy="128" r="22" fill="#E8A872"/>
  <circle cx="142" cy="123" r="2.5" fill="#374151"/>
  <circle cx="154" cy="123" r="2.5" fill="#374151"/>
  <path d="M142,134 Q148,138 154,134" stroke="#374151" stroke-width="2.5" fill="none" stroke-linecap="round"/>

  <line x1="120" y1="120" x2="120" y2="145" stroke="#F59E0B" stroke-width="3" stroke-linecap="round" stroke-dasharray="3,4"/>
  <polygon points="120,114 114,124 126,124" fill="#F59E0B"/>
  <polygon points="120,151 114,141 126,141" fill="#F59E0B"/>
</svg>
