<svg xmlns="http://www.w3.org/2000/svg" viewBox="0 0 200 200" width="200" height="200">
  <rect x="20" y="176" width="170" height="14" rx="7" fill="#D1D5DB"/>

  <line x1="100" y1="148" x2="45" y2="170" stroke="#E8A872" stroke-width="24" stroke-linecap="round"/>
  <line x1="100" y1="148" x2="78" y2="154" stroke="#7C3AED" stroke-width="24" stroke-linecap="round"/>
  <rect x="35" y="164" width="20" height="10" rx="5" fill="#FFFFFF" stroke="#9CA3AF" stroke-width="2"/>

  <line x1="100" y1="148" x2="118" y2="118" stroke="#E8A872" stroke-width="22" stroke-linecap="round"/>
  <line x1="118" y1="118" x2="135" y2="132" stroke="#E8A872" stroke-width="22" stroke-linecap="round"/>
  <circle cx="118" cy="118" r="9" fill="#CF8E55"/>
  <line x1="100" y1="148" x2="111" y2="130" stroke="#7C3AED" stroke-width="22" stroke-linecap="round"/>
  <circle cx="135" cy="132" r="7" fill="#E8A872"/>

  <line x1="150" y1="140" x2="100" y2="148" stroke="#4F46E5" stroke-width="30" stroke-linecap="round"/>

  <line x1="150" y1="140" x2="158" y2="172" stroke="#E8A872" stroke-width="18" stroke-linecap="round"/>
  <line x1="150" y1="140" x2="155" y2="156" stroke="#4F46E5" stroke-width="18" stroke-linecap="round"/>
  <circle cx="158" cy="172" r="9" fill="#E8A872"/>

  <line x1="150" y1="140" x2="160" y2="134" stroke="#E8A872" stroke-width="14" stroke-linecap="round"/>
  <circle cx="170" cy="128" r="21" fill="#E8A872"/>
  <circle cx="164" cy="123" r="2.2" fill="#374151"/>
  <circle cx="176" cy="123" r="2.2" fill="#374151"/>
  <path d="M164,134 Q170,138 176,134" stroke="#374151" stroke-width="2.5" fill="none" stroke-linecap="round"/>

  <path d="M100,148 Q110,135 116,122" stroke="#F59E0B" stroke-width="2.5" fill="none" stroke-linecap="round" stroke-dasharray="2,3"/>
  <polygon points="116,122 109,124 114,131" fill="#F59E0B"/>
</svg>
